<?xml version="1.0" standalone="no"?>
<!DOCTYPE svg PUBLIC "-//W3C//DTD SVG 1.1//EN" "http://www.w3.org/Graphics/SVG/1.1/DTD/svg11.dtd" >
<svg xmlns="http://www.w3.org/2000/svg">
<metadata>
This is a custom SVG webfont generated by Font Squirrel.
Copyright   :  Dana Rice  Apostrophic Laboratories All rights reserved Distribute freely apostrofemailcom
Designer    : Dana Rice  Apostrophe
Foundry URL : httpmembershomecomapostrophe
</metadata>
<defs>
<font id="webfontDHYUuUJT" horiz-adv-x="1028" >
<font-face units-per-em="2048" ascent="1638" descent="-410" />
<missing-glyph horiz-adv-x="659" />
<glyph unicode=" "  horiz-adv-x="659" />
<glyph unicode="&#x09;" horiz-adv-x="659" />
<glyph unicode="&#xa0;" horiz-adv-x="659" />
<glyph unicode="!" horiz-adv-x="690" d="M339 26q1 46 40 78q29 23 67 23q39 0 66 -23q18 -16 27.5 -39.5t9.5 -48.5t-10.5 -46t-28.5 -36q-33 -27 -74 -23.5t-69.5 36.5t-27.5 79zM414 444q10 104 18 226l17 235q8 115 14 213.5t12 159.5q2 37 24.5 55.5t51.5 18.5q23 0 42 -16.5t25 -49.5q4 -16 5.5 -38.5 t1.5 -37.5q0 -20 -4.5 -31.5t-10.5 -19.5l-9 -158q-5 -88 -11 -184t-14.5 -194.5t-18.5 -184.5q-4 -37 -25.5 -53t-50 -14t-50 20t-17.5 53z" />
<glyph unicode="&#x22;" horiz-adv-x="503" d="M68 1231q2 12 7 25l9 24q23 45 68 45q18 -2 33.5 -15.5t17.5 -41.5v-56v-79q0 -41 -1 -81t-1 -67q0 -29 -18.5 -44t-43.5 -15q-23 0 -41 14t-18 45q0 49 1 110.5t1 94.5q-10 6 -13 17.5t-1 23.5zM334 1226.5q2 12.5 7 25.5l9 24q23 45 68 45q18 -2 33.5 -15.5t17.5 -41.5 v-56v-80q0 -41 -1 -80.5t-1 -66.5q0 -29 -18.5 -44t-42.5 -15q-23 0 -41.5 14t-18.5 45q0 49 1 110.5t1 94.5q-10 6 -13 17t-1 23.5z" />
<glyph unicode="#" horiz-adv-x="1069" d="M104 205q0 29 16.5 47t39.5 24q29 10 79 17.5t111 7.5l25 129l22 127q-14 0 -26.5 -1t-24.5 -5q-16 -29 -49 -33t-59 6q-23 10 -41.5 27.5t-18.5 46.5t17.5 43t40.5 23q41 16 83.5 22t104.5 6q12 59 23 131l20 123q4 35 23.5 46.5t48.5 11.5t48 -21.5t15 -48.5l-19 -124 q-9 -58 -20 -112h174q10 55 20 121l17 125q4 35 25.5 47.5t44.5 12.5q25 0 45 -18.5t20 -47.5q0 -23 -3 -52.5t-8 -62t-11 -64.5t-13 -59q47 0 79 -3t55 -7q41 -6 57 -29.5t16 -46.5q0 -29 -19.5 -48t-47.5 -19q-14 0 -28 4l-32 10q-23 4 -50 6t-54 2q-12 -66 -26.5 -131 t-24.5 -127q43 0 81 -6t58 -6q35 0 52.5 -22.5t17.5 -51.5q0 -25 -16.5 -46t-49.5 -21q-27 0 -59 12q-23 2 -49.5 4t-63.5 2q-10 -47 -18.5 -97t-8.5 -93q23 -23 21 -53.5t-21 -55.5q-27 -35 -79 -33q-35 2 -46.5 27t-13.5 45q-4 47 6 117l21 143h-82q-43 0 -86 -2 q-10 -47 -18.5 -97t-8.5 -91q23 -25 20 -55.5t-22 -55.5q-29 -39 -80 -33q-37 4 -47 30t-12 44q-4 41 7 112l22 138q-33 0 -60 -8q-16 -23 -45 -29t-55 4q-16 8 -38 24.5t-22 47.5zM496 307h161l26 129l24 131q-45 0 -85 -1t-79 -1l-25 -128q-12 -67 -22 -130z" />
<glyph unicode="$" horiz-adv-x="942" d="M168 -83q-4 26 6 48q8 18 31.5 29.5t48.5 1.5q20 -10 35.5 -15.5t36.5 -0.5q18 4 51 16t57 29q0 39 4 90t10.5 106l13.5 114l13 111l-41 16q-25 9 -49.5 20.5t-46.5 20.5l-37 15q-59 23 -88 58.5t-31 76.5q0 37 25.5 75t79.5 71q20 12 49 24.5t60.5 24.5t63.5 22.5 t58 20.5q8 57 11 115l6 98q2 29 20 45t41 16t41 -15t18 -46t-3 -82t-7 -92q66 16 133.5 29.5t120.5 11.5q33 0 58.5 -9.5t39.5 -21.5q18 -14 23.5 -34.5t-2.5 -41.5q-6 -16 -24.5 -29.5t-43.5 -13.5q-23 0 -40 8.5t-27 18.5q-41 0 -113 -13.5t-137 -33.5q-2 -29 -5 -65 l-6 -72q-3 -37 -8.5 -73l-9.5 -61l62 -27q33 -15 53 -30q51 -33 74.5 -66.5t23.5 -84.5q0 -125 -121 -246q-29 -31 -65.5 -65t-77.5 -56q-4 -29 -5 -57.5t7 -57.5q10 -10 15 -19t16 -18q23 -29 8 -61q-10 -16 -27.5 -25.5t-44.5 -5.5q-70 6 -86 90q-4 16 -4 41v47 q-27 -14 -55.5 -21t-54.5 -11q-23 -2 -54.5 2t-62.5 18q-33 14 -37 40zM328 664q0 -12 11 -22.5t28 -18.5q8 -4 24.5 -11.5t34.5 -14.5t34.5 -14.5t26.5 -11.5l5.5 39t5.5 52.5t5 54.5l5 45l-79 -27.5t-69 -32.5q-28 -18 -32 -38zM559 106q39 29 69.5 64t48 69.5t15.5 65.5 q0 25 -6 33t-27 24q-29 23 -67 37q-8 -72 -18.5 -149.5t-14.5 -143.5z" />
<glyph unicode="%" horiz-adv-x="1445" d="M145 541q10 72 42 136t75 119.5t91 98.5t91 72q25 16 49.5 14t38.5 -12q31 -25 11 -58q-4 -6 -9.5 -11t-9.5 -13q84 -53 119 -129t43 -158q12 -109 -25.5 -163t-107.5 -77q-41 -14 -93 -21t-91 -11q-115 -10 -177.5 41t-46.5 172zM262 524q-8 -88 100 -80q29 4 73 9.5 t75 15.5q33 10 50.5 33.5t8.5 68.5q-4 31 -10 64t-20.5 64.5t-40 59t-68.5 46.5q-20 -16 -47 -43t-51.5 -61.5t-44 -79t-25.5 -97.5zM461 -131q-2 31 27.5 94.5t78.5 146.5t112 178l124 190l117 182q55 87 92 153q0 35 8 60.5t22 46.5q16 23 39 32t43 2q20 -8 31.5 -30.5 t1.5 -61.5q-10 -41 -56 -124t-110 -185l-134 -213l-132 -209q-61 -98 -103 -172t-47 -100q-6 -33 -25.5 -43.5t-41.5 -5.5q-18 4 -31.5 19t-15.5 40zM862 37q10 72 42 136.5t75 119.5t91 98t91 72q25 16 49.5 14t38.5 -12q31 -25 11 -57q-4 -6 -9.5 -11.5t-9.5 -13.5 q84 -53 119 -129t43 -158q12 -109 -26 -163t-107 -76q-41 -14 -93.5 -21.5t-91.5 -11.5q-115 -10 -177 41t-46 172zM979 20q-8 -88 100 -79q29 4 73 9t75 15q33 10 50 34t9 69q-4 31 -10 63.5t-20.5 64t-40 59.5t-68.5 46q-20 -16 -47 -43t-51.5 -61.5t-44 -79t-25.5 -97.5z " />
<glyph unicode="&#x26;" horiz-adv-x="913" d="M80 96.5q-4 57.5 20 120.5q25 59 73 102t97 68q18 10 37 17.5t39 13.5q-25 16 -48.5 37.5t-33.5 46.5q-16 41 -4 87t46 84t87 63.5t119 25.5t121 -11.5t94 -33.5q35 -16 38 -46t-13 -53q-31 -39 -84 -26q-31 10 -64 19.5t-92 9.5q-53 0 -77.5 -26t-18.5 -46 q8 -29 46 -44.5t73 -33.5q23 -10 33 -29.5t10 -42.5q2 -23 -9.5 -41t-36.5 -28q-33 -12 -83 -26.5t-105 -37.5q-35 -12 -64.5 -38.5t-39.5 -61.5q-16 -53 16.5 -86t149.5 -39q43 -4 90 -4q49 0 96 3t86 11t63 25q33 23 58.5 12.5t40.5 -33.5q16 -25 12 -54.5t-33 -45.5 q-39 -23 -87 -36t-102.5 -18t-110.5 -6t-113 1q-109 2 -178.5 28.5t-106.5 70.5t-41 101.5zM369 -274q0 35 11 55t11 39q0 39 26.5 56.5t55.5 12.5q23 -4 41 -20t18 -49q0 -35 -9 -55.5t-13 -38.5q-4 -37 -25.5 -53.5t-48.5 -16.5t-48 17.5t-19 52.5zM485 848 q-2 45 11.5 75.5t13.5 57.5q2 39 25.5 57.5t52.5 14.5q29 -2 48 -19.5t19 -52.5q-4 -41 -13 -71.5t-13 -61.5q-2 -35 -24.5 -52.5t-49.5 -17.5q-29 0 -48.5 17.5t-21.5 52.5z" />
<glyph unicode="'" horiz-adv-x="311" d="M74 1231q2 12 7 25l9 24q23 45 68 45q18 -2 33.5 -15.5t17.5 -41.5v-56v-79q0 -41 -1 -81t-1 -67q0 -29 -18.5 -44t-43.5 -15q-23 0 -41 14t-18 45q0 49 1 110.5t1 94.5q-10 6 -13 17.5t-1 23.5z" />
<glyph unicode="(" horiz-adv-x="923" d="M301 274q0 154 54.5 305.5t143.5 296t202.5 275.5t230.5 246q25 27 50.5 23.5t41.5 -23.5q16 -14 18 -39t-20 -45q-131 -123 -240.5 -254t-188.5 -264t-123 -264.5t-44 -254.5q0 -176 94 -286.5t297 -163.5q33 -8 45 -27.5t8 -48.5q-4 -23 -24.5 -38t-57.5 -7 q-250 51 -368.5 203.5t-118.5 365.5z" />
<glyph unicode=")" horiz-adv-x="923" d="M76 -235.5q-2 24.5 20 45.5q131 123 240.5 254t188.5 264t123 264t44 254q0 176 -94 286.5t-297 163.5q-33 8 -45 27.5t-8 48.5q4 23 24.5 38t57.5 7q125 -25 217 -78t151.5 -126.5t89 -166t29.5 -198.5q0 -154 -55 -305.5t-144.5 -296t-202 -276.5t-229.5 -244 q-25 -27 -50 -24t-42 24q-16 14 -18 38.5z" />
<glyph unicode="*" horiz-adv-x="659" d="M132 803.5q5 23.5 30 42.5q12 8 39 21l57 28l60 29q30 14 51 26q-8 4 -24 11l-34 13q-18 7 -36 15l-29 15q-25 -6 -49.5 1t-38.5 29q-12 18 -13 37q0 20 11 37q12 20 34.5 26.5t51.5 -6.5q20 -8 43.5 -23t46.5 -32l44 -32q22 -15 36 -23q2 20 2 53v70q0 35 1 66.5t5 47.5 q4 29 22.5 39.5t38.5 10.5q25 0 42.5 -15.5t15.5 -42.5l-11 -52l-12 -66l-11 -64q-5 -31 -7 -49l44 27l56 36q29 18 57.5 33.5t46.5 24.5q29 12 51.5 4t32.5 -25q10 -16 6 -37.5t-26 -44.5q-14 -12 -32.5 -20t-41.5 -4q-14 -8 -36.5 -17.5t-46.5 -17.5l-44 -16 q-20 -7 -33 -13l43 -23q29 -15 60 -34t57.5 -37t36.5 -31q16 -23 14 -41t-14 -32q-16 -14 -30.5 -17.5t-30.5 -1.5q-25 4 -45.5 21.5t-26.5 40.5q-12 8 -28 21l-30 28q-15 14 -30 25l-23 18q0 -12 1 -34l2 -44q1 -23 3.5 -44.5t2.5 -33.5q10 -16 12 -34.5t0 -33.5 q-6 -31 -25.5 -45t-42.5 -14q-27 2 -46 19.5t-19 52.5q0 20 4 49t9 57.5t9 55t6 45.5q-8 -4 -22 -16l-32 -24l-36 -28l-30 -23q-2 -23 -21.5 -40t-46.5 -21q-53 -6 -76 35q-10 18 -5 41.5z" />
<glyph unicode="+" horiz-adv-x="813" d="M74 641q6 29 27.5 49.5t50 26.5t85 7t121.5 -3v53q0 25 -2 37q0 10 -9 22.5t-15 22.5q-10 16 -8 34.5t14 33.5q20 29 61 22q29 -6 49.5 -27.5t26.5 -50.5q4 -23 6 -63.5t0 -87.5q53 -2 97.5 -3t73 3t45 -14.5t16.5 -40.5q2 -20 -12.5 -39t-45.5 -23q-33 -4 -80 -4h-98 q-4 -68 -5 -130.5t3 -96.5q4 -29 -14.5 -45.5t-40.5 -16.5q-20 -2 -39 12.5t-23 45.5q-4 41 -4 104q0 66 2 131q-51 2 -92 2q-39 0 -55 -4q-10 0 -22.5 -9l-22.5 -16q-16 -10 -34.5 -8t-33.5 15q-28 20 -22 61z" />
<glyph unicode="," horiz-adv-x="362" d="M109.5 -358.5q-11.5 22.5 5.5 47.5q18 33 28.5 74.5t16.5 81.5t8 72t2 48q-10 2 -13 13.5t0 24.5t8 27l9 23q10 23 28.5 33t35.5 8q20 0 36.5 -12t16.5 -37q2 -35 2 -82t-5 -101.5t-20.5 -112.5t-44.5 -114q-14 -27 -36.5 -30.5t-43.5 4.5q-22 10 -33.5 32.5z" />
<glyph unicode="-" d="M279 369q6 29 27.5 49t49.5 26q33 8 101 9q68 0 143.5 -3.5t145 -5.5t110.5 2q29 4 45.5 -14t16.5 -41q2 -20 -12.5 -38.5t-45.5 -22.5q-43 -4 -110 -4q-68 0 -135.5 1t-124 2t-76.5 -3q-10 0 -22.5 -9.5t-22.5 -15.5q-16 -10 -35 -8t-33 14q-28 21 -22 62z" />
<glyph unicode="." horiz-adv-x="354" d="M104 25q0 47 41 79q31 23 69 21t62 -21q20 -14 29.5 -37.5t9.5 -48.5t-9 -47t-30 -37q-33 -23 -73.5 -21.5t-69.5 34.5t-29 78z" />
<glyph unicode="/" horiz-adv-x="1128" d="M168 -166q4 47 59.5 137t143.5 207l196 252l218 272l209 269q99 131 167 239q0 35 5 65t20 52q20 35 39.5 43t46.5 4q23 -4 31 -34.5t2 -77.5q-6 -43 -50.5 -121t-114 -176.5t-157.5 -211.5l-179 -230l-180 -228l-162 -209q-73 -96 -121 -171t-58 -114q-10 -35 -26.5 -40 t-43.5 3q-51 11 -45 70z" />
<glyph unicode="0" horiz-adv-x="1351" d="M178 227q8 84 37 163t68 148.5t83 126t83 95.5q0 20 13 32.5t32 12.5q23 23 53.5 50.5t48.5 41.5q35 23 59.5 17.5t44.5 -19.5q16 -14 22.5 -35.5t-3.5 -32.5q-4 -4 -13.5 -12t-17.5 -14q61 -10 121.5 -25.5t108.5 -38.5q61 -29 110 -66.5t88 -80.5t68 -85l51 -77 q47 -74 56 -146.5t-19 -131.5q-55 -109 -217 -162q-43 -14 -93.5 -28.5l-102.5 -28.5l-100 -25q-48 -12 -87 -25q-123 -39 -230.5 -24.5t-175.5 80.5q-49 47 -73.5 119.5t-14.5 170.5zM334 217.5q-2 -61.5 13 -102.5t40 -66q39 -37 103.5 -40t142.5 20l88 22l99 25 q50 12 96.5 26.5t80.5 26.5q47 16 80 38.5t47 51.5q27 51 -16 127q-53 88 -124 156.5t-146 103.5q-111 49 -275 56q-35 -35 -74.5 -85.5t-73.5 -110.5t-56.5 -123.5t-24.5 -125z" />
<glyph unicode="1" horiz-adv-x="770" d="M217 25q-10 29 0 56.5t45 39.5q23 8 54.5 12t54.5 4q0 66 5 154t13 177l17 170q8 81 16 134q2 16 -6 20.5t-19 0.5q-16 -10 -33.5 -19.5t-33.5 -15.5q-20 -4 -39 7t-29 28q-14 25 -10 53t39 45q12 6 33 18l44 27l46 29l37 22q25 14 51 13t47.5 -13t33 -33.5t9.5 -46.5 l-20 -176q-11 -102 -21 -209.5l-18.5 -207t-12.5 -167.5q35 2 59.5 -3t45.5 -15q31 -16 30 -55q0 -29 -18.5 -51.5t-54.5 -26.5q-20 -2 -42 -1t-44 -1q-14 -27 -46 -28t-47 22q-4 -4 -18 -4q-12 0 -29 -4q-12 -12 -28.5 -16.5t-30.5 -2.5q-64 11 -80 64z" />
<glyph unicode="2" horiz-adv-x="1232" d="M157 48q7 34 42 58l143 106q74 56 141.5 113.5t124.5 112.5l99 99q41 47 48 88t-34 71q-16 16 -49 36t-68 28l-44 6q-30 4 -64.5 6t-70.5 3t-63 1q-39 2 -58 25.5t-19 52.5q-2 27 15 49.5t52 24.5q43 4 89 3t89 -5t78 -10.5t54 -12.5q53 -16 102 -47t72 -47 q92 -72 82.5 -169t-95.5 -198q-66 -78 -169 -166l-210 -174q88 12 182.5 20.5t184.5 13.5t174 6t150 -5q47 -4 69.5 -30.5t20.5 -59.5q-4 -23 -20.5 -44t-45.5 -34q-27 -10 -56.5 -2t-45.5 21q-84 4 -183.5 1t-204 -12.5t-207 -21.5t-192.5 -25q-37 -4 -64.5 12.5 t-39.5 43.5q-16 28 -9 62z" />
<glyph unicode="3" horiz-adv-x="1069" d="M106.5 -391q10.5 31 53.5 45q70 25 151.5 58.5t161.5 78.5t149.5 99.5t116.5 115.5q33 47 49.5 85t14.5 73q0 96 -131 137q-25 8 -61 9t-72.5 -1t-73.5 -5l-64 -5q-37 -4 -63.5 12.5t-36.5 38.5q-12 25 -3 52.5t46 50.5l81 54l93 67l90 71q43 35 74 64q41 43 32 73.5 t-93 34.5q-45 2 -90.5 -2t-88.5 -12t-79.5 -18.5t-63.5 -22.5q-39 -14 -66.5 -5t-44.5 31q-16 27 -13 60t38 49q37 16 87 30.5t106.5 25t117 15.5t117.5 3q100 -4 160.5 -34t85.5 -75q29 -49 10.5 -110.5t-76.5 -120.5q-37 -39 -98 -89t-129 -93q41 0 86 -3.5t92 -19.5 q98 -37 146.5 -106.5t50.5 -155.5q0 -61 -24.5 -126t-74.5 -126q-55 -70 -131.5 -132.5t-164 -114.5t-180.5 -93t-179 -68q-37 -10 -65.5 4.5t-38.5 42.5q-15 27 -4.5 58z" />
<glyph unicode="4" horiz-adv-x="1325" d="M97 334.5q3 27.5 26 50.5q27 29 78 71t116 89l138 98l141 98l130 85l101 63q10 33 38 47t57 10q27 -4 46 -24.5t19 -55.5q-4 -96 -10 -223t-14 -246q72 4 151.5 6.5t147.5 6.5q39 2 58 -21.5t19 -54.5q0 -29 -17 -51.5t-54 -26.5q-70 -4 -154 -7t-168 -5q-8 -98 -13 -212 t-5 -225q29 -29 22.5 -60.5t-22.5 -53.5q-37 -49 -78 -49q-31 0 -52.5 24.5t-23.5 77.5q-2 59 -1 109.5t3 105.5t6 122t11 157q-154 -4 -304.5 -10.5t-293.5 -6.5q-35 0 -57.5 16.5t-33.5 41.5q-10 26 -7 53.5zM369 385q2 -4 8 -4q111 4 213 7t213 5q10 86 13 161t7 151 l-223 -149l-227 -163q-6 -4 -4 -8z" />
<glyph unicode="5" horiz-adv-x="1083" d="M102 -637q0 31 31 57q102 86 199.5 186.5t180.5 204t148.5 203t106.5 183.5q49 102 23 159q-29 59 -136 80q-47 8 -103 4t-107.5 -16t-87 -30.5t-40.5 -37.5q-8 -27 -30.5 -39t-46.5 -10q-31 2 -53.5 21.5t-22.5 56.5q-2 59 6 140t12 157q0 39 24.5 57.5t55.5 18.5 q29 0 51.5 -19.5t22.5 -56.5q0 -45 -4 -79t-4 -62q33 16 75.5 28.5t91 19.5t95.5 7q49 0 94 -8q111 -18 174.5 -54t91.5 -90q35 -61 21.5 -141t-60.5 -178q-41 -86 -110.5 -191.5t-158.5 -215t-193.5 -217t-215.5 -197.5q-29 -23 -59.5 -19t-48.5 27q-23 20 -23 51zM233 901 q-2 29 17.5 54.5t58.5 21.5q72 -2 167 -4l194 -4q98 -2 190 -3t158 -1q39 0 57.5 -23.5t18.5 -52.5t-18.5 -52.5t-57.5 -23.5h-156q-94 0 -195.5 2t-196.5 5t-163 7q-37 2 -55.5 24.5t-18.5 49.5z" />
<glyph unicode="6" horiz-adv-x="1478" d="M167 95.5q-15 115.5 42 275.5q35 94 82 202.5t101 215t109.5 202.5t106.5 166q27 35 59.5 36t59.5 -15q23 -16 34 -48t-7 -67q-10 -23 -26.5 -36t-39.5 -23l-82 -140l-87 -161q-44 -85 -85 -177t-74 -190q-41 -117 -34.5 -192.5t47.5 -116.5q61 -57 192 -39 q72 199 159 342t183 211q111 78 223.5 80t206.5 -64q47 -31 77 -79t36 -102t-14.5 -110.5t-73.5 -107.5q-74 -70 -172 -123t-197.5 -92t-187.5 -64.5t-137 -38.5q-23 -37 -62 -38t-57 28q-92 -10 -168 12.5t-129 71.5q-70 66 -85 181.5zM745 23q49 14 120 38.5t144.5 56.5 t139 69.5t102.5 80.5q41 47 38 87t-42 75q-20 18 -51 27.5t-64.5 8.5t-68.5 -12.5t-66 -33.5q-59 -47 -120.5 -140t-131.5 -257z" />
<glyph unicode="7" horiz-adv-x="1036" d="M61 834q-12 31 4.5 61.5t77.5 40.5q70 8 173.5 13t215.5 5q115 0 227.5 -2t198.5 -8q49 -2 76 -17.5t37 -37.5q23 -47 -29 -109q-57 -70 -120 -157l-128 -187q-65 -98 -124.5 -200.5t-111.5 -203t-91 -192.5t-59 -168q10 -29 9 -57.5t-14 -46.5q-18 -29 -48.5 -39 t-59.5 -2q-33 10 -52.5 44t-2.5 89q39 141 108.5 291.5t150.5 295t168 274.5t162 231q14 20 10.5 33.5t-38.5 13.5q-66 2 -124.5 3t-121.5 1q-61 0 -133 -3t-162 -9q-23 -16 -46.5 -22.5t-45.5 -4.5q-35 -2 -65 19.5t-42 50.5z" />
<glyph unicode="8" horiz-adv-x="1415" d="M148.5 21.5q-5.5 46.5 15.5 101.5q16 45 44 88t62.5 82t73.5 68.5t80 46.5q-92 31 -114.5 100.5t18.5 171.5q18 49 59 105.5t97.5 105.5t128 81t153.5 32q76 0 157 -28t144 -78t101 -120.5t30 -154.5q-6 -63 -42 -109.5t-89 -69.5q68 -29 122 -70.5t90 -92t49 -107.5 t1 -115q-18 -84 -78.5 -138t-143.5 -88t-175 -52.5t-172 -26.5q-49 -6 -107.5 -5t-118 9.5t-117 24.5t-106.5 41q-41 20 -76.5 49t-58 65.5t-28 83zM322 84q-14 -37 6 -72t59 -55q66 -33 166 -46t195 -5q74 6 148.5 22.5t135 40t99 54t43.5 67.5q6 55 -24 105.5t-88 86 t-139 53t-178 7.5q-80 -8 -145 -21.5t-117.5 -41t-92 -74.5t-68.5 -121zM470 573.5q3 -26.5 30.5 -45t84 -26.5t154.5 -2q131 10 212 41.5t87 101.5q4 39 -18.5 77t-61 67.5t-89 47t-103.5 17.5q-49 0 -97 -21.5t-88 -54.5t-69 -71.5t-37 -73.5q-8 -31 -5 -57.5z" />
<glyph unicode="9" horiz-adv-x="1273" d="M90 547q2 78 51 151.5t121 130.5q113 90 250 137.5t262 47.5q117 0 202 -52.5t134 -127.5q35 -57 49.5 -136.5t3.5 -158.5q14 -10 17.5 -24.5t1.5 -27.5q-4 -18 -12.5 -36.5t-30.5 -28.5q-27 -113 -79 -232.5t-117.5 -237.5t-141.5 -227.5t-152 -203.5q-27 -27 -57 -27 q-29 0 -55 23q-16 14 -20.5 45.5t13.5 54.5q61 76 124 167t120 188.5t104.5 191.5t77.5 176q-164 -55 -337 -62.5t-326 37.5q-205 62 -203 232zM258 557q0 -29 18.5 -53.5t71.5 -42.5q68 -23 153 -29t174 3t176 30.5t159 56.5q10 72 0.5 132.5t-31.5 95.5q-35 51 -85 81.5 t-128 30.5q-88 0 -198.5 -37t-209.5 -112q-41 -33 -70.5 -80t-29.5 -76z" />
<glyph unicode=":" horiz-adv-x="385" d="M149.5 28q2.5 48 43.5 76q27 23 63 23q37 0 66 -23q20 -16 31.5 -38.5t11.5 -47.5t-11.5 -47t-31.5 -37q-35 -23 -75 -20.5t-69 33.5q-31 33 -28.5 81zM161 426q1 49 42 78q29 20 65 20q39 0 66 -20q20 -16 30.5 -40t10.5 -48q0 -25 -10.5 -47.5t-32.5 -36.5 q-35 -23 -75 -21t-69 33q-28 33 -27 82z" />
<glyph unicode=";" horiz-adv-x="565" d="M324 425q2 48 43 79q29 20 63 20q37 0 66 -20q41 -35 42 -89.5t-44 -82.5q-35 -23 -75 -21t-69 33q-28 33 -26 81zM324.5 -358.5q-11.5 22.5 5.5 47.5q18 33 28.5 74.5t16.5 81.5t8 72t2 48q-10 2 -13 13.5t0 24.5t8 27l9 23q10 23 28.5 33t35.5 8q20 0 36.5 -12 t16.5 -37q2 -35 2 -82t-5 -101.5t-20.5 -112.5t-44.5 -114q-14 -27 -36.5 -30.5t-43.5 4.5q-22 10 -33.5 32.5z" />
<glyph unicode="&#x3c;" horiz-adv-x="1120" d="M55 381q0 27 11.5 50.5t33.5 37.5q100 84 187 145l166 117l161 110q82 54 179 126q18 37 46.5 59.5t63.5 22.5q14 0 43 -4.5t49 -28.5q45 -57 -32 -117q-49 -37 -127 -88l-169 -113l-189 -131l-189 -143q-37 -29 2 -51q166 -98 346 -185l397 -184q27 -10 37 -31.5 t10 -35.5v-19q-6 -49 -40.5 -61.5t-69.5 2.5l-199 91l-231 109l-233 118q-114 60 -204 118q-25 14 -37 37.5t-12 48.5z" />
<glyph unicode="=" horiz-adv-x="911" d="M156 664q6 29 27.5 49t49.5 26q33 8 100.5 7t143.5 -4t145.5 -5t110.5 2q29 4 45.5 -14t16.5 -41q2 -20 -12.5 -38.5t-45.5 -22.5q-43 -4 -110 -5q-68 0 -135.5 2.5t-124 3.5t-76.5 -3q-10 0 -22.5 -9.5t-22.5 -15.5q-16 -10 -34.5 -8t-33.5 14q-28 21 -22 62zM162 369 q6 29 27.5 49t50.5 26q33 8 100.5 7.5t143 -4t145 -5.5t110.5 2q29 4 45.5 -14t16.5 -41q2 -20 -12.5 -38.5t-45.5 -22.5q-43 -4 -110 -4q-68 0 -135.5 2t-124 3t-76.5 -3q-10 0 -22.5 -9.5t-22.5 -15.5q-16 -10 -34.5 -8t-33.5 14q-28 21 -22 62z" />
<glyph unicode="&#x3e;" horiz-adv-x="1124" d="M49 -61q0 14 10.5 35.5t36.5 31.5l398 184q180 86 346 185q39 23 2 51q-92 74 -190 143l-188 131l-169 113q-78 51 -127 88q-78 59 -33 117q20 25 49 29t43 4q35 0 63.5 -22.5t47.5 -59.5q94 -72 177 -126l163 -110l165 -117q85 -61 187 -145q20 -14 32.5 -37.5 t12.5 -50.5q0 -25 -12 -48.5t-37 -37.5q-90 -57 -204 -118l-232 -118l-232 -109l-198 -91q-35 -14 -70 -2t-41 61v19z" />
<glyph unicode="?" horiz-adv-x="854" d="M295 1237q-2 29 12 51q16 20 44 29.5t67 -4.5q96 -39 186 -71l160 -54q92 -31 136 -87.5t40 -119.5q0 -96 -96 -180q-145 -129 -250 -231.5t-133 -155.5q2 -43 -6 -76q-4 -23 -20.5 -36t-36 -16t-39 4t-31.5 23q-23 33 -16 84.5t36 98.5q27 43 72 91t98 99l111 106 l112 109q41 37 41 72q-4 45 -73 74q-53 23 -130 49l-139 49q-23 -4 -53.5 5t-60.5 32q-29 26 -31 55zM374 34q1 46 42 79q29 23 66.5 20.5t64.5 -20.5q20 -16 30.5 -39t9.5 -47.5t-11.5 -47t-30.5 -36.5q-33 -23 -74 -22t-69.5 34t-27.5 79z" />
<glyph unicode="@" horiz-adv-x="1849" d="M11 -105.5q-1 89.5 22.5 195t75.5 221.5q57 127 136 261.5t170 260t191.5 234.5t198.5 186q188 145 348 146q121 6 219 -57.5t168 -174.5q31 -49 60.5 -107.5t55 -118.5t48 -119.5t37.5 -112.5q25 -90 31 -180.5t-10.5 -173.5t-61.5 -158.5t-121 -137.5 q-23 -18 -62.5 -42.5t-132.5 -71.5q-90 -8 -138 10t-83 72q-14 18 -25.5 55t-11.5 65q-2 16 -15 19.5t-30 -8.5q-23 -14 -54 -40l-68 -57l-72 -63l-70 -59q-78 -59 -145.5 -62.5t-110.5 35.5q-53 47 -53 141q2 45 14.5 89t32.5 85q31 61 76 121t95 112t101.5 94t94.5 71 q37 25 84 52.5t101 40.5t113.5 5t118.5 -57q27 -23 29 -49.5t-10 -49.5q-16 -29 -52 -38t-69 12q-47 37 -103.5 27.5t-132.5 -60.5q-37 -25 -83 -65t-89 -87t-80.5 -97t-60.5 -97q-12 -25 -16 -59.5t12 -47.5q23 -18 66 19l76 65l96 79l97 77q48 37 85 59q31 18 62.5 25.5 t56 1.5t39 -26.5t14.5 -55.5q-2 -41 1 -77t13 -62q12 -35 34 -47.5t56 -10.5q25 2 51.5 20.5t54 45.5t54.5 59.5t51 67.5q47 86 46 173t-27 198q-12 49 -35 111.5t-50.5 128t-58 125t-61.5 102.5q-57 76 -116.5 123t-131.5 47q-53 0 -113.5 -28t-132.5 -87 q-88 -72 -183 -179.5t-187 -236.5t-175 -270.5t-147 -278.5q-45 -100 -63.5 -176t-15.5 -133t24.5 -98t56.5 -70q55 -43 134 -56.5t184 15.5l-2 2q16 35 41.5 46t52.5 7q20 -4 33.5 -18t23.5 -33q10 -25 7 -50.5t-33 -49.5l-3 2v-2q2 0 3 -2q-2 0 -3.5 -1t-3.5 -1 q-184 -47 -321 -50.5t-219 70.5q-49 43 -76 111.5t-28 158z" />
<glyph unicode="A" horiz-adv-x="1437" d="M35 113q0 8 3 21t11 26.5t22.5 23t39.5 9.5l55 12q29 6 53 16l87 173l98 203l101 211l94 198l80 162q36 71 58 106q0 27 19.5 49.5t56.5 24.5h9q21 0 38 -9q20 -10 33 -39q45 -106 89 -224l87 -231l83 -216q40 -102 75 -178q27 4 49 9l41 9q23 4 48.5 -7t35.5 -59 q0 -16 -10.5 -39.5t-38.5 -33.5l-32 -9l-34 -10q6 -14 14 -30l17 -33l26 -50l35 -61l35 -58q16 -28 29 -44q21 -28 20 -57q0 -34 -24.5 -52t-55.5 -18q-5 0 -9 1q-36 3 -60 36q-16 20 -37 53t-41 70l-40 72q-19 36 -32 65q-6 14 -16 34l-23 42l-412 -98l-378 -87l-36 -74 q-19 -40 -42 -81q0 -20 -10 -49t-47 -48q-20 -10 -49 -10q-27 0 -44 16q-27 25 -26 52q0 27 14 55q10 23 22.5 46.5t28.5 45.5q-9 -1 -18 -1q-29 0 -55 10q-35 14 -37 55zM414 262l155 35l167 38l170 39l165 38q-72 166 -132 343t-126 339l-94 -192l-104 -216l-104 -220z " />
<glyph unicode="B" horiz-adv-x="1452" d="M-39 1239q0 28 14 49q16 23 45 33q10 3 20 3q20 0 42 -13q27 -16 78 -31.5t119.5 -31t150.5 -31t170 -27.5q106 -16 205.5 -27.5l179.5 -21.5q111 -16 175.5 -55t80.5 -93q6 -19 6 -39q0 -36 -19 -75q-30 -61 -104 -117q-61 -45 -107 -72.5l-99 -56.5 q-18 -10 -16.5 -22.5t24.5 -16.5q27 -2 61.5 -5t69.5 -10.5t69.5 -19.5t65.5 -31q92 -59 143 -136t54 -175v-8q0 -76 -35 -157q-37 -85 -125 -171q-66 -61 -143.5 -118.5t-164.5 -105.5t-178.5 -85t-179.5 -59q-45 -9 -93 -10h-9q-53 1 -92 40q-28 28 -28 59v2q1 32 24 54 q16 16 39.5 22.5t48.5 -10.5q14 -10 35.5 -9t48.5 7q63 14 143 45t161 74t154.5 96.5t124.5 110.5q111 123 111 215q0 53 -32 100t-97 94q-20 14 -56 25.5t-79 19t-90.5 10.5t-92.5 3q-53 0 -84.5 19.5t-52.5 62.5q-9 21 -9 42q0 12 3 24q8 34 41 57q72 51 149.5 90 t167.5 102q53 43 54 74q0 6 -2 12q-12 33 -90 45q-37 4 -95.5 11.5l-126.5 16.5l-138 19q-71 10 -132 21q0 -94 -5 -207l-10 -228q-5 -116 -9 -226q-1 -47 -1 -90q0 -57 2 -107q0 -49 48 -74q35 -23 41 -53.5t-9 -57.5q-14 -23 -40.5 -33t-61.5 3q-45 18 -85 63t-44 123 q-5 71 -5 156q0 28 1 58q2 120 7 243t11 241.5t8 212.5q-47 8 -93 19.5t-89 24t-77.5 26.5t-59.5 29q-37 22 -37 59z" />
<glyph unicode="C" horiz-adv-x="1323" d="M217 148q-3 28 -3 57q0 34 4 68q7 65 25.5 130.5t45.5 128.5q45 109 122.5 217.5t173 205t199 175t199.5 127.5q41 20 68 21q27 0 41 -14q23 -23 22 -60q0 -37 -20 -71q-18 -31 -42 -42.5t-59 -7.5q-72 -41 -155.5 -107.5t-162.5 -147t-144.5 -174t-100.5 -187.5 q-16 -47 -30.5 -95t-20.5 -94q-5 -35 -5 -68q0 -11 1 -22q2 -43 18 -79q20 -47 64.5 -80t128.5 -47q59 -10 124 -15q32 -2 67 -2t72 2q75 4 161 18.5t188 41.5q16 4 30 3q52 0 68 -55q4 -14 4 -27q0 -20 -9 -37q-15 -30 -58 -40q-207 -51 -377 -58q-38 -2 -75 -2 q-126 0 -230 19q-131 27 -201.5 78t-103.5 129q-23 51 -29 111z" />
<glyph unicode="D" horiz-adv-x="1380" d="M160 1393q18 20 49 27q9 2 19 2q23 0 48 -11l249 -133l239 -130l203 -116q90 -53 143 -88q272 -176 270 -375l2 -20q0 -52 -34 -114q-41 -75 -106.5 -150.5t-142.5 -144t-143 -113.5q-102 -72 -218 -136l-244 -131q-22 -12 -42 -11q-11 0 -21 3q-28 10 -44 35 q-14 27 -7 58.5t42 50.5l243 130q114 62 203 128q51 37 111.5 92t113 114.5t87 117t34.5 100.5q0 61 -46 118.5t-138 118.5q-49 33 -119 75l-146 86l-157 87l-149 82q-12 -154 -28 -317l-29 -303l-22 -243q-9 -103 -9 -141q0 -25 14 -53.5t23 -48.5q16 -33 3.5 -54.5 t-34.5 -33.5q-29 -10 -61.5 -3t-51.5 42q-12 23 -29.5 61.5t-17.5 87.5q0 31 4 94.5t12 148.5l18 188q9 103 20.5 213t21.5 221.5t18 216.5q-16 10 -36.5 20t-38.5 16q-23 0 -43.5 11.5t-34.5 34.5q-17 22 -17 44q0 27 19 46z" />
<glyph unicode="E" horiz-adv-x="1359" d="M156 485q0 39 43 74q20 16 51 20.5t53 -8.5q23 2 47.5 5.5t46.5 7.5q33 90 57.5 180t30.5 145q2 23 1 41.5t-5 32.5l-81 -24q-46 -13 -87 -27q-19 -7 -34 -7q-16 0 -28 8q-24 15 -32 41.5t5.5 57.5t47.5 45q123 47 254 72t259 36t245 12h75q72 0 134 -1q41 0 61.5 -25.5 t16.5 -52.5q-2 -29 -21.5 -51.5t-56.5 -17.5q-69 3 -140 2q-83 0 -167 -3q-158 -7 -295 -34q8 -16 9 -36t-1 -42q-4 -70 -27.5 -157t-50.5 -173l162 26q84 13 164 27l151 28q72 13 123 26q33 8 53.5 -10.5t24.5 -47.5q4 -27 -8 -54.5t-49 -37.5q-51 -12 -136 -28.5 t-181 -32.5l-189 -32l-162 -26q-29 -86 -47 -168.5t-20 -154.5q0 -9 -1 -17q0 -29 6 -55q7 -33 23 -51q25 -23 62 -23h12q92 4 223 27t254 64q53 18 95 40.5t75 61.5q27 27 55 27q31 0 54 -19q20 -16 26 -49q1 -7 2 -13q0 -26 -20 -48q-41 -49 -100.5 -84t-131.5 -60 q-51 -18 -121.5 -37.5t-147.5 -34t-154.5 -24.5t-141.5 -10q-5 0 -10 -1q-49 0 -88 19q-43 20 -74 68q-27 39 -41 94t-14 125q0 29 6 69.5t15 83.5l19 83l15 67q-20 -4 -55 -7t-51 1h-8q-36 0 -56 18q-22 20 -24 49z" />
<glyph unicode="F" horiz-adv-x="1243" d="M41 1151q0 33 28 55q23 19 65 19h16q111 -10 263 -13q61 -1 122 0q92 0 186 1q156 3 297 7.5t231 4.5q45 0 86 -11.5t58 -29.5q29 -33 29 -68q0 -26 -15 -47q-25 -35 -68 -37q-20 0 -47.5 10.5t-44.5 28.5q-20 1 -50 1t-69 -1q-78 -2 -180 -5t-225 -4h-83q-83 0 -169 1 q2 -84 6 -166t10 -162q57 2 137.5 7.5t163 12.5t158.5 15t125 14q43 6 78 23q29 16 53.5 9t40.5 -23q20 -23 20 -57q0 -38 -34 -64q-27 -18 -63 -26.5t-76 -16.5q-55 -8 -130 -15.5t-156 -13.5l-163 -12q-82 -6 -149 -8l5 -142q3 -84 7 -176l8 -183q4 -91 8 -165 q4 -39 -20.5 -57.5t-53.5 -18.5t-55 18.5t-26 53.5l-10 167l-10 177q-5 88 -8 170t-3 149q-33 2 -62 11q-25 10 -37 28.5t-14 38.5q-2 16 8.5 32.5t28.5 25.5q16 6 34.5 12t35.5 10q-2 59 -6 152l-9 180q-16 0 -48 -1t-50 1q-15 -17 -44 -18q-18 0 -42 8q-43 14 -64.5 41.5 t-23.5 56.5z" />
<glyph unicode="G" horiz-adv-x="1554" d="M193 242q10 94 55 207.5t110.5 232.5t144.5 233.5t158.5 211t151.5 166t125 98.5q28 16 51 16q6 0 11 -1q28 -5 47 -26q14 -14 18 -33.5t0 -39.5q-6 -27 -22.5 -45.5t-55.5 -22.5q-41 -25 -100.5 -86t-127 -146t-136 -185.5t-126 -205t-96.5 -206t-49 -185.5 q-3 -31 -2 -57q0 -120 51 -170q35 -35 93 -43q25 -4 55 -4q37 0 80 6q57 8 121.5 24.5t131 39t132 49t125.5 55.5v459q-41 0 -91.5 1t-99.5 3q-33 1 -63 1h-29q-43 -1 -68 -3q-10 -6 -31.5 -14.5t-43.5 -6.5q-29 4 -48.5 20.5t-29.5 39.5q-10 27 2 53.5t49 42.5q29 12 87 16 q47 3 104 4q14 0 29 -1q75 -1 159 -5t164 -4q106 0 181 3t97 14q19 6 37 6q16 0 29 -5q29 -11 41 -34q10 -18 10 -38q0 -11 -3 -23q-9 -32 -46 -48q-25 -10 -61.5 -15t-76.5 -7t-79 -2t-66 2v-424q32 -6 32 -44q0 -35 -32 -73v-446q0 -45 -22.5 -69t-52.5 -24 q-23 0 -46.5 12.5t-40.5 39.5q-12 16 -14 42.5t21 43.5v313q-133 -57 -248 -96t-242 -56q-63 -9 -119 -9q-53 0 -98 8q-94 17 -154 75q-53 53 -76 143q-14 53 -14 121q0 47 7 101z" />
<glyph unicode="H" horiz-adv-x="1499" d="M133 389q0 27 19.5 51.5t58.5 38.5q18 8 41.5 7t40.5 -7q23 -2 42 -4t36 -6q8 66 17 155t17.5 183t13.5 185q4 65 3 118v24v23q0 38 22 60q25 23 58 22q25 2 49 -13.5t35 -47.5q4 -18 5 -44t-16 -44q1 -12 1 -28q0 -37 -4 -91q-5 -76 -12 -163t-16 -178l-16 -165 q57 0 127 1l143 2l147 2q75 1 145 1q4 86 7 193l6 207q3 101 4 187v52q0 47 -1 76q-4 8 -10 18l-11 19q-6 18 -8 43.5t2 48.5q6 23 24.5 38t42.5 19q9 1 17 2l30 -5q24 -7 38 -28q16 -29 22.5 -62.5t6.5 -66.5q1 -31 1 -84v-58q-1 -95 -3.5 -203.5t-6.5 -216t-6 -179.5h131 q37 0 55.5 -22.5t18.5 -51.5t-19.5 -50t-54.5 -21h-133q-4 -92 -5 -195.5t-5 -191.5q-4 -47 -23.5 -70t-48.5 -25q-25 0 -49.5 17.5t-38.5 52.5q-11 30 -10 63v12q2 40 16 68q0 66 2 127.5t6 139.5q-158 0 -306 -5q-99 -3 -184 -2h-83q-4 -51 -8 -85.5t-6 -63.5t-3 -56.5 t-1 -64.5q8 -16 15 -32.5t11 -43.5q4 -33 -10 -56.5t-37 -33.5q-18 -9 -37 -9q-16 0 -32 6q-37 13 -54 61q-17 44 -16 106q0 23 2 48q8 95 20 224h-71q-45 0 -70 5q-43 4 -63.5 22t-20.5 45z" />
<glyph unicode="I" horiz-adv-x="933" d="M80 1065q-2 25 16.5 47.5t59.5 30.5q27 6 65.5 8t81.5 2h86h82q8 16 24.5 24.5t34.5 8.5t35 -9.5t23 -27.5q86 -2 193 -3h71q69 0 131 1q37 0 57.5 -22.5t20.5 -51.5t-18.5 -50.5t-55.5 -25.5q-41 -4 -92 -4h-100q-49 0 -97.5 2t-85.5 6q2 -50 2 -103.5t-2 -110.5 q-4 -114 -11 -231.5t-15 -234l-15 -223.5q72 2 150 2h133q37 0 55.5 -21.5t18.5 -47.5q2 -29 -18.5 -53.5t-59.5 -24.5q-53 0 -133 -1t-170 -5q-10 -16 -26.5 -24.5t-35.5 -8.5q-16 0 -31.5 8t-23.5 25q-68 -2 -126 -4q-19 -1 -38 -1q-38 0 -73 3q-39 0 -60.5 23.5 t-21.5 51.5q0 27 21.5 50.5t60.5 23.5h110q51 0 117 4q6 113 13 230.5l13.5 234.5t9.5 229q2 67 2 129q0 41 -1 80q-47 2 -101 3q-53 0 -100 -3q-20 -16 -48 -18t-52 2q-35 6 -55.5 28.5t-20.5 51.5z" />
<glyph unicode="J" horiz-adv-x="737" d="M-182 -231q0 27 14 49q12 23 34.5 35t51.5 8t52.5 -18.5t31.5 -37.5q14 -2 39 -2t56.5 9.5t70.5 30t86 59.5q61 51 101 109.5t63.5 130t31.5 158.5q4 47 3 101q0 46 -2 97q-12 252 -29 456q-13 164 -13 285q0 30 1 57q-14 10 -27.5 21.5t-11.5 30.5q0 25 16 61.5t33 58.5 q20 23 49 30q12 3 23 3q16 0 32 -6q25 -8 38 -25.5t9 -42.5q-4 -16 -9 -39.5t-5 -41.5q2 -74 7 -170l11 -204q6 -108 14.5 -225.5t14.5 -234.5q4 -60 4 -116.5t-4 -108.5q-8 -104 -36.5 -193.5t-81 -165t-132.5 -141.5q-72 -57 -144.5 -91t-138.5 -44q-30 -5 -59 -5 q-34 0 -65 7q-57 12 -97 47q-32 28 -32 68z" />
<glyph unicode="K" horiz-adv-x="1150" d="M227 489q0 63 41 115q2 61 7.5 131t8.5 137.5t5 131t2 114.5q0 43 27.5 61.5t60.5 18.5q35 0 53.5 -21.5t22.5 -56.5q1 -6 0 -12q0 -30 -15 -72q0 -37 -3 -80l-6 -88q-3 -45 -5 -90t-2 -84q61 31 151 67l176 72q85 36 147.5 66.5t70.5 48.5q10 23 34.5 32t51.5 9 q41 0 53 -28.5t8 -59.5q-6 -39 -34.5 -61.5t-43.5 -32.5q-61 -37 -152 -75l-184 -75q-92 -37 -169.5 -71.5t-112.5 -63.5l-4 -90q47 -45 117.5 -88t149.5 -84t161 -79l154 -75q73 -37 130.5 -71.5t88.5 -69.5q18 -23 17 -44q0 -6 -1 -11q-6 -27 -21 -43q-16 -20 -48 -29 q-6 -2 -12 -1q-26 0 -52 28q-29 33 -110 76t-182 91l-209 101q-108 53 -187 107q0 -68 -2 -105t-2 -82q-6 10 -2 7t10 -12t13 -21.5t9 -18.5q2 -9 2 -17q0 -28 -20 -54q-16 -20 -39 -27.5t-55 10.5q-20 10 -44 37t-24 72v346q-31 51 -31 114z" />
<glyph unicode="L" horiz-adv-x="1212" d="M196 85q0 80 37 206q86 291 128 533.5t65 420.5q4 37 31 55q24 17 49 17h6q29 -2 51.5 -22.5t18.5 -57.5q-18 -217 -66.5 -468t-126.5 -519q-20 -68 -22 -108q0 -4 -1 -7q0 -34 17 -53q14 -16 37.5 -22.5t60.5 -6.5q94 2 189.5 14.5t182.5 33t160.5 47t127.5 57.5 q25 13 46 13q8 0 16 -2q28 -7 44 -32q14 -21 14 -47v-10q-3 -33 -38 -55q-72 -43 -166 -77t-197.5 -55.5t-211 -31.5t-206.5 -10q-72 2 -122 15t-78 44q-46 44 -46 128z" />
<glyph unicode="M" horiz-adv-x="1693" d="M215 -82q-5 55 -5 110q0 61 6 122q11 117 28.5 252t35 295.5t19.5 363.5q-4 20 -10 44.5t-6 47.5q0 27 17 42t40 26q18 7 35 7l14 -1q25 -4 35 -23q6 -10 11 -26.5t9 -32.5q20 -8 21.5 -28.5t-6.5 -41.5q41 -186 107.5 -312t164.5 -214q53 -47 103 -48q4 0 8 1 q25 0 53.5 12t50.5 29q25 20 57.5 57t67.5 81l67 88q32 44 52 81q6 10 8 21.5t4 19.5q6 25 28.5 36t51.5 11q31 0 55.5 -9t28.5 -38l45 -210q25 -114 53.5 -228.5t59 -222t63.5 -191.5q6 -16 19.5 -24.5t27.5 -12.5q37 -14 37 -58q0 -26 -20 -50q-23 -27 -66 -31 q-5 -1 -10 -1q-34 0 -67 23q-38 27 -54 68q-33 78 -61.5 169t-54 187.5t-46.5 190.5l-39 178q-18 -31 -45 -66l-54 -68q-28 -34 -55.5 -63.5t-51.5 -50.5q-47 -41 -101.5 -61.5t-109.5 -20.5q-121 0 -215 88q-59 55 -107.5 126t-79.5 153q-10 -127 -23 -238l-25 -208 q-11 -97 -17 -182q-3 -42 -3 -82.5t3 -78.5q1 -6 0 -11q0 -33 -21 -54q-25 -25 -55 -27h-5q-24 0 -45 20q-24 21 -28 64z" />
<glyph unicode="N" horiz-adv-x="1392" d="M216 159q3 114 12.5 237.5t22.5 242.5t25 205l-23 50q-13 28 -20 56q-4 29 8.5 50.5t32.5 31.5q19 9 39 9q4 0 8 -1q24 -2 39 -22q10 -14 19 -30l16 -30q33 -4 45 -32q6 -14 6 -30t-6 -34q33 -72 78 -161t99.5 -181t117 -178t127.5 -149q35 -35 64.5 -48.5t52.5 -11.5 q43 2 67.5 40t38.5 73q14 37 31 112.5t29 162.5t16 174q1 29 2 55q0 52 -6 94q-29 20 -29 54q0 39 21 63q18 20 43 30q29 10 58.5 -2t39.5 -49q18 -68 20 -167v-20q0 -90 -8 -185q-9 -105 -28 -206.5t-43 -173.5q-33 -100 -100.5 -162.5t-153.5 -64.5q-53 2 -110.5 29.5 t-116.5 93.5q-92 96 -181.5 228t-167.5 286q-8 -80 -15 -164l-13 -161q-6 -77 -8 -144q-1 -23 -1 -43q0 -41 3 -72q4 -23 8 -39t20 -22q29 -10 38 -33.5t-1 -46.5t-30 -38q-15 -12 -37 -12q-6 0 -13 1q-63 6 -95 47t-36 98q-6 55 -6 131q0 28 1 59z" />
<glyph unicode="O" horiz-adv-x="1656" d="M170 266q0 80 31.5 180.5t86 197.5t127 182t152.5 137q6 43 34 66q17 15 41 15q15 0 32 -6q29 -10 53.5 -37.5t11.5 -56.5q12 -8 33 -4q43 6 91 6q38 0 78 -4q91 -8 204 -63q84 -41 168 -92.5t155 -106.5q78 -59 119 -131t41 -150q-2 -100 -68.5 -180t-205.5 -133 q-90 -35 -190.5 -67.5t-190.5 -67.5q-209 -77 -382 -78q-15 0 -29 1q-183 7 -286 103q-106 101 -106 289zM324 266q4 -59 20 -110.5t51 -81.5q58 -54 179 -55h5q124 1 341 73l186 63q100 34 186 68q94 41 135 83t41 89q0 72 -104 166q-57 49 -130 93t-155 85q-98 47 -190 55 q-34 3 -66 2q-54 0 -102 -8q-29 -6 -58.5 1.5t-37.5 29.5q-55 -41 -109.5 -113.5t-97.5 -154.5t-68.5 -159t-25.5 -126z" />
<glyph unicode="P" horiz-adv-x="1208" d="M39 1144q-4 13 -4 26t4 26q8 27 32.5 44t59.5 17q23 0 45.5 -10t36.5 -26q80 -23 180.5 -43.5t206.5 -39.5l212 -40q105 -20 194 -43q147 -41 218 -107q73 -68 72 -146q0 -61 -46 -119q-48 -60 -146 -108q-43 -18 -102 -47l-122 -59l-130 -61l-123 -56q-19 -9 -35 -8 q-14 0 -28 6q-28 14 -40 41q-10 27 -4 54.5t41 43.5l128 60l126 59l115 55l94 46q90 41 86 92q0 31 -35 59.5t-110 46.5q-68 18 -152 35l-173 34l-177 34l-164 31q-76 15 -133 29.5t-84 29.5q-35 18 -43 44zM295 137q-1 44 -1 88q0 109 7 214q10 146 29.5 271.5t36.5 204.5 q8 41 36 52q14 5 29 5t31 -5q25 -6 44 -27q15 -16 15 -36q0 -6 -2 -13q-18 -80 -36.5 -203t-27.5 -263q-6 -97 -7 -198q0 -45 2 -90q4 -147 30 -278q8 -31 -9 -51.5t-46 -26.5q-12 -3 -23 -3q-19 0 -36 8q-29 13 -39 56q-29 139 -33 295z" />
<glyph unicode="Q" horiz-adv-x="1548" d="M125 84q0 125 86 299q47 94 110.5 193.5t137 192.5t151.5 172t156 134q140 98 257 99h9q90 -2 162 -53.5t119 -139.5q43 -76 80 -174t55 -180q14 -66 18 -130q1 -14 1 -29q0 -50 -11 -98q-14 -62 -51 -121t-102 -110q-20 -16 -49 -34l-56 -33l-57 -32l-51 -28 q20 -86 45.5 -167t56.5 -134q18 -33 43 -47t47 -14q35 -4 52.5 -26.5t15.5 -49.5q-2 -33 -24 -56q-20 -22 -54 -22h-6q-68 2 -121 36t-84 93q-41 78 -67.5 163t-49.5 167l-93 -39l-98 -37.5t-90 -31t-69 -19.5q-89 -20 -162 -20q-41 0 -78 7q-100 17 -159 76q-70 70 -70 193 zM297 128v-14q0 -68 37 -104q37 -33 100 -36h19q56 0 120 16q37 8 80 21l88 29q45 15 88 31.5t78 32.5q-4 25 -9 49.5t-13 47.5q-25 8 -33 49q-2 12 -2 23q0 29 14 57q16 33 44 51t55 18q18 0 33.5 -12t21.5 -41q8 -33 16 -85t19 -91q43 23 84 47.5t63 42.5q45 37 68.5 74 t33.5 76q7 29 6 60v22q-3 43 -14 92q-6 33 -19 75.5t-28.5 85.5t-35 83t-37.5 69q-35 53 -73 85t-85 34h-8q-65 0 -156 -66q-61 -43 -128 -111.5t-131.5 -150.5t-122.5 -173t-103 -179q-66 -129 -70 -208z" />
<glyph unicode="R" horiz-adv-x="1247" d="M23 1204q0 24 16 43q23 36 71 36q7 0 15 -1q20 0 41.5 -9t32.5 -22l225.5 -52.5t218 -59t201.5 -70.5t178 -86q180 -111 180 -221q0 -115 -190 -203q-55 -27 -127 -53l-147 -53l-147 -53q-73 -26 -134 -50q0 -14 -1 -24.5t-1 -22.5q70 -47 169 -99t206.5 -100.5 t215 -88.5t195.5 -62q41 -10 54 -41q8 -17 8 -34q0 -13 -5 -25q-10 -29 -34 -47q-15 -11 -36 -10q-12 0 -26 3q-74 20 -171 56t-199.5 80.5t-203 93.5t-182.5 98q0 -33 -1 -73t-3 -78.5t-3 -73.5t-1 -60q-2 -41 -24.5 -58t-48.5 -17q-29 2 -55 22q-24 19 -23 54v5 q2 82 5 186.5t3 192.5q-55 45 -61 111v9q0 60 65 110v151q0 82 4 163t14.5 155.5t32.5 134.5q-35 10 -77 18l-68 13q-14 -4 -36 0t-45.5 13t-44 22.5t-32.5 25.5q-24 23 -24 51zM449 508l122 41l135 45q67 23 127 46.5t103 45.5q80 39 80 80t-78 90q-66 43 -184.5 88 t-253.5 80q-16 -29 -25.5 -79t-14.5 -117.5t-7 -149.5z" />
<glyph unicode="S" horiz-adv-x="940" d="M168 725q-2 123 135 270q63 70 139 139.5l149 130.5l134 110q61 50 98 85q8 33 26.5 57.5t47.5 34.5q19 6 37 7q11 0 20 -3q27 -6 45 -22q24 -22 24 -49q0 -30 -28 -66q-33 -39 -102 -99l-155 -131l-170 -146q-85 -75 -148 -144q-86 -92 -86 -168q0 -68 78 -141 q27 -27 68 -64l87 -75l87 -77l71 -65q135 -139 135 -272q2 -55 -18.5 -106.5t-57.5 -98.5q-37 -45 -78.5 -82t-82.5 -67.5t-80 -54t-70 -40.5q-22 -10 -42 -10q-11 0 -22 3q-30 9 -47 40q-16 25 -10 54.5t41 50.5l63 34q36 20 71.5 45t69.5 54.5t60 64.5q45 57 45 115 q-2 74 -90 164q-27 27 -68 64l-86 76l-86 74l-69 60q-135 119 -135 248z" />
<glyph unicode="T" horiz-adv-x="1103" d="M-158 1073q17 19 49 19h7q86 -4 198.5 -5.5t237.5 -1.5t255 1l249 3q119 1 219 1q102 0 172 -3q53 0 75 -26q18 -22 18 -49q0 -5 -1 -11q-4 -23 -19.5 -44t-37.5 -31q-25 -12 -57.5 -8t-55.5 24q-66 2 -190 2q-123 0 -283 -4l-5 -137q-3 -80 -3 -170v-180q0 -90 2 -169 t6 -140.5t10 -90.5q39 -30 39 -70v-8q-4 -43 -34 -60q-22 -13 -45 -13q-8 0 -17 2q-31 6 -62.5 32.5t-38.5 86.5q-12 84 -15 198q-2 86 -2 177v62q1 124 4 249t5 231q-76 -2 -164 -3t-172 -1t-158.5 1t-123.5 3q-39 0 -62 28q-21 25 -20 51q-1 31 20 54z" />
<glyph unicode="U" horiz-adv-x="1415" d="M217 428q6 137 24.5 258t38 215t19.5 141q0 39 25.5 59.5t50.5 18.5q31 0 55.5 -21.5t24.5 -60.5q0 -61 -19.5 -161.5t-38 -217t-24.5 -240.5q-1 -23 -1 -46q0 -99 21 -189q37 -154 103 -213q47 -47 109 -51q8 -1 16 0q55 0 116 25q70 29 137.5 87t126.5 138 q53 74 88 169t54.5 196.5t25.5 203.5q4 68 5 131q0 31 -2 62q-3 90 -12 161.5t-19 112.5q-4 15 -4 28q0 24 12 42q18 29 47 39q12 4 24 4q17 0 35 -8q31 -14 41 -54q8 -37 18.5 -109.5t14.5 -170.5q2 -44 2 -91q0 -59 -3 -122q-5 -115 -26.5 -233.5t-63.5 -233.5t-112 -213 q-63 -92 -148 -167t-179 -116q-94 -39 -183 -38q-19 0 -38 1q-106 10 -189 86q-53 49 -91 125t-60 183q-22 108 -22 219q0 25 1 51z" />
<glyph unicode="V" horiz-adv-x="1359" d="M100 881q12 35 62 41h16q16 0 38 -10.5t32 -37.5l184 -397q86 -180 184 -346q12 -20 25 -20q12 0 27 18l108 139l123 162l127 169l119 161l99 135l69 92q38 49 74 49q21 0 43 -16q25 -20 28.5 -49t3.5 -43q0 -35 -22.5 -63.5t-59.5 -47.5l-152 -207l-168 -225l-175 -229 l-172 -215q-14 -23 -38 -34t-50 -11q-25 0 -48.5 12t-37.5 37q-57 90 -118 203l-118 233l-109 231l-92 199q-8 19 -7 38q-1 16 5 32z" />
<glyph unicode="W" horiz-adv-x="1957" d="M238 952q0 41 23.5 60.5t51.5 19.5q29 0 52.5 -19.5t23.5 -54.5q2 -94 8 -200.5t15.5 -217t20.5 -219t26 -206.5q4 -31 12 -49.5t21 -18.5q20 0 55 53q27 45 59 108l68 132l68 142l65 138l55 115l41 82q12 29 39 38t53 1q23 -4 39.5 -23.5t12.5 -52.5q-3 -62 -4 -135v-38 q1 -95 11.5 -186t34 -170t68.5 -122q59 -59 141 -63q9 0 18 -1q73 0 138 31q72 37 128 92.5t85 128.5q25 59 25 144q0 84 -15 178q-16 94 -42.5 180t-54.5 153.5t-52.5 110.5t-34.5 54q-29 27 -29 56q0 34 25 56q20 20 51 25q4 1 8 0q27 0 51 -25q27 -27 60 -82t64.5 -130.5 t58 -168t45.5 -192.5q23 -113 22 -215q0 -102 -39 -199q-41 -102 -110.5 -175t-165.5 -120q-55 -27 -119 -41q-52 -12 -104 -12l-23 1q-63 3 -124.5 27.5t-116.5 73.5q-41 39 -67 92.5t-41 116t-21.5 130t-8.5 137.5l-61 -127l-69 -137l-71 -135q-36 -67 -71 -124 q-47 -80 -99 -114q-40 -27 -78 -27q-11 0 -22 2q-47 6 -81.5 58.5t-47.5 148.5l-23 199q-13 111 -23.5 231.5t-17.5 244t-7 240.5z" />
<glyph unicode="X" horiz-adv-x="1083" d="M49 -279q6 29 23 61l32 62l66 108l91 147l109 175l119 191q-18 31 -48 76l-61 96l-66 102l-60 94l-45 69q-18 28 -21 32q-16 29 -11 56.5t26 43.5q29 18 59.5 15.5t54.5 -37.5l41 -63l74 -112l83 -126l67 -103l89 145l94 149l93 147l86 133q12 20 25.5 29.5t19.5 25.5 q16 35 44 40q7 1 14 1q19 0 36 -10q20 -14 34 -36q10 -16 10 -36q0 -6 -1 -12q-4 -41 -26.5 -59.5t-28.5 -28.5l-199 -312l-202 -317l87 -122l101 -130q53 -66 109.5 -128l111.5 -118q29 -25 24 -55.5t-26 -48.5q-20 -20 -49 -22.5t-57 20.5q-55 53 -109 113l-102 121 l-94 119l-84 112l-193 -312q-92 -147 -151 -252q-29 -47 -50 -100q-10 -27 -27.5 -37t-35.5 -10q-35 2 -58 30q-19 22 -19 56q0 8 1 18z" />
<glyph unicode="Y" horiz-adv-x="1091" d="M111 1040q-4 10 -4 20q0 15 10 29q16 22 42.5 31.5t54.5 1.5t40 -43q23 -61 62.5 -153t89.5 -195l101 -208q52 -105 101 -193l73 125l94 160l112 183l123 189q98 145 196 262q23 25 54 25h5q34 -2 56 -18.5t29 -45.5q1 -5 1 -10q0 -24 -24 -49q-47 -53 -96 -116.5 t-92 -129.5l-125 -195l-110 -179l-102 -172l-102 -177q5 -16 5 -29q0 -20 -11 -36q-18 -27 -47 -31l-44 -77l-58 -99l-60 -97q-29 -46 -47 -71q-23 -29 -53 -31h-7q-26 0 -46 15q-25 16 -33 41.5t14 58.5q51 78 106 171l101 177q-59 102 -124 228l-122 248 q-57 122 -101 226.5t-62 163.5z" />
<glyph unicode="Z" horiz-adv-x="1169" d="M106 -29q-5 16 -5 35q0 30 15 64q24 55 83 114l178 172l188 174l187 168l174 154q16 16 24 32.5t0 28.5q-10 18 -51 19q-168 -8 -310.5 -26.5t-293.5 -53.5q-31 -10 -55.5 -24.5t-48 -5.5t-35.5 32q-14 23 -12.5 50.5t30.5 56.5q29 27 86 43q162 39 338 59t379 24 q11 1 21 1q63 0 102 -21q45 -25 61 -66q9 -22 9 -45q0 -28 -12 -59q-22 -57 -77 -111l-168 -152l-196 -175l-197 -177q-96 -87 -166 -159q-25 -25 -40 -45.5t-9 -36.5q10 -23 70 -29q30 -1 60 -1q53 0 109 4q87 7 167 22.5t147.5 37t112.5 44.5q23 13 42 13q12 0 22 -5 q28 -12 42 -37q10 -22 11 -42q0 -11 -4 -21q-9 -29 -46 -45q-68 -31 -155.5 -56.5t-186 -43t-199.5 -23.5q-38 -2 -75 -3q-61 0 -117 7q-170 18 -199 108z" />
<glyph unicode="[" horiz-adv-x="485" d="M69 -218q-1 28 5 52q2 66 4 191t3 280l2 328q1 172 1 330t-2 289.5t-6 205.5q-8 111 22.5 143.5t104.5 8.5q90 -4 170 -5t133 -1q39 0 59.5 -25t18.5 -53q0 -27 -18.5 -48.5t-55.5 -21.5h-133q-78 0 -150 2q4 -72 6.5 -201t3.5 -286.5t1 -329.5t-1 -328.5t-3.5 -283.5 t-4.5 -195q37 2 62.5 3t50.5 0t52.5 -4t68.5 -5q37 -4 55.5 -25.5t18.5 -50.5t-20.5 -51.5t-57.5 -22.5q-47 0 -77 2.5t-55 3.5l-53 2q-27 1 -69 1q-49 -4 -78 9t-43 35.5t-15 50.5z" />
<glyph unicode="\" horiz-adv-x="1009" d="M51 1262q-6 47 2 77.5t31 34.5q27 4 46.5 -4t39.5 -43q14 -23 19.5 -52.5t5.5 -64.5q68 -109 166 -239l209 -269l218 -272l197 -252q88 -117 143.5 -207t59.5 -137q6 -59 -45 -70q-27 -8 -43.5 -2.5t-26.5 39.5q-10 39 -58 114t-121 171l-162 209l-180 228l-179 230 l-158 212t-114 176t-50 121z" />
<glyph unicode="]" horiz-adv-x="454" d="M-96 1526q-2 29 18.5 53.5t59.5 24.5q53 0 133 1t170 5q74 25 104.5 -8t22.5 -144q-4 -74 -6.5 -206t-2.5 -289q0 -158 1 -330l3 -328q1 -156 3 -280.5t4 -190.5q6 -25 5 -52.5t-15.5 -50t-43 -35.5t-77.5 -9q-43 0 -70 -1l-52 -2q-26 -1 -55.5 -3.5t-76.5 -2.5 q-37 0 -57.5 23t-20.5 51q0 29 18.5 50.5t55.5 25.5q41 2 68.5 5t52 4t50 0t62.5 -3q-2 68 -4 195t-3 283.5t-1 328.5t1 329.5t3 286.5t6 201q-72 -2 -149 -2h-134q-37 0 -55 21.5t-18 48.5z" />
<glyph unicode="^" horiz-adv-x="708" d="M223 832.5q2 21.5 27 37.5l111 69q56 36 100 60q49 33 90 -2q31 -29 67 -67l64 -68q18 -23 16 -44t-18 -35.5t-35.5 -16.5t-40.5 14l-52 50l-48 47q-6 8 -12.5 7t-12.5 -5l-80 -51l-86 -54q-23 -14 -46 -7t-34 28q-12 16 -10 37.5z" />
<glyph unicode="_" d="M-62.5 -302q-3.5 28 10 52.5t34.5 30.5q23 6 101.5 9t184.5 3h228q123 0 231.5 -1t189 0t107.5 3q14 2 30.5 -6t30 -21.5t22.5 -28.5t9 -28q2 -20 -12 -44.5t-45 -28.5q-29 -4 -110 -6.5t-187.5 -3.5t-222.5 -1h-220q-102 0 -174.5 1t-89.5 3q-61 -2 -87.5 18.5t-30 48.5 z" />
<glyph unicode="`" horiz-adv-x="565" d="M188 970.5q2 22.5 17 39.5q12 16 34.5 22t43.5 -10l124 -98l117 -95q25 -16 23 -39.5t-15 -39.5q-12 -14 -32.5 -20.5t-42.5 9.5l-124 95l-122 96q-25 18 -23 40.5z" />
<glyph unicode="a" horiz-adv-x="1257" d="M143 53q2 45 14.5 89t32.5 85q31 61 76 121t95.5 112t101.5 94t94 71q37 25 84 52.5t101 40.5q34 8 70 8q22 0 44 -3q59 -8 119 -57q27 -23 29 -49.5t-11 -49.5q-16 -29 -52 -38q-11 -3 -22 -2q-24 0 -47 14q-38 29 -81 29q-11 0 -22 -2q-56 -9 -132 -60q-37 -25 -83 -65 t-89 -87t-81 -97t-60 -97q-12 -25 -16.5 -59.5t11.5 -47.5q8 -6 18 -6q20 0 48 25l77 65l95 79l97 77q48 37 85 59q31 18 63 25.5t56.5 1.5t38.5 -26.5t14 -55.5q-1 -16 0 -32q0 -23 1 -45q3 -36 14 -62q12 -35 33.5 -47.5t56.5 -10.5q27 4 61.5 13.5t69.5 22l68.5 25.5 t58.5 25q31 14 53.5 8t38.5 -24q16 -21 16 -48q0 -7 -1 -13q-5 -35 -38 -56q-70 -39 -158.5 -70.5t-164.5 -39.5q-28 -3 -52 -3q-53 0 -86 13q-48 18 -83 72q-14 18 -25.5 55t-11.5 65q-2 16 -15.5 19.5t-29.5 -8.5q-23 -14 -54 -40l-68 -57l-73 -63l-69 -59 q-78 -59 -146 -63h-10q-61 0 -100 36q-54 47 -54 141z" />
<glyph unicode="b" horiz-adv-x="1107" d="M198 273q-2 40 -2 83.5t2 88.5q3 91 11 188.5t19.5 187.5t23.5 169t24 136q6 33 13.5 58.5t23.5 48.5q26 37 71 37h9q31 0 51.5 -17.5t16.5 -50.5q-2 -25 -14.5 -48.5t-16.5 -37.5q-10 -59 -21.5 -134t-22.5 -160t-19.5 -175t-12.5 -178q20 25 53 48.5t66 39.5 q57 29 137 56.5t160 37.5q34 5 63 5q42 0 75 -10q56 -17 89 -52q39 -45 40 -118q0 -7 -1 -14q-4 -83 -55 -175q-25 -51 -62.5 -106.5t-82.5 -104.5q-72 -78 -159 -138l-177 -118q-22 -15 -43 -15q-8 0 -17 2q-29 8 -45 35q-14 25 -8 56.5t31 48.5l174 115q78 54 135 122 q37 41 68.5 88t48.5 86q18 39 24 67t-10 50q-10 14 -30.5 19.5t-59.5 1.5q-53 -6 -127 -31t-143 -66q-35 -20 -68 -48.5t-49 -63.5q-4 -10 -7 -20l-7 -21q-4 -29 -3 -56.5t3 -52.5q-2 -37 -23.5 -56.5t-48.5 -21.5t-50.5 16.5t-31.5 57.5q-12 59 -15 140z" />
<glyph unicode="c" horiz-adv-x="1185" d="M203 303q31 53 73.5 103.5t97 94.5t116 79.5t128.5 60.5q25 8 60 10q12 1 22 1q21 0 37 -3q47 -6 68.5 -29.5t23.5 -52.5q0 -29 -19 -54.5t-54 -31.5q-25 -6 -53.5 -3t-57.5 14q-37 -10 -81 -35t-85 -61t-76.5 -76.5t-56.5 -81.5q-16 -31 -17 -61t17.5 -52.5t54 -35.5 t93.5 -13q102 0 201.5 18.5t184.5 45t147.5 55t90.5 45.5q31 16 58.5 9t44.5 -30q14 -22 13 -48v-10q-3 -32 -42 -55q-37 -20 -105.5 -50.5t-158.5 -58.5t-200 -48.5t-228 -22.5h-16q-101 0 -174 25q-79 27 -119 77q-39 49 -38 116q0 71 50 159z" />
<glyph unicode="d" horiz-adv-x="1267" d="M149 186q0 86 84 176q39 43 95.5 86.5t120 79t130 59t126.5 23.5q49 0 87.5 -11t72.5 -29.5t62 -41.5l52 -43q-8 104 -18.5 218l-21.5 224.5t-23.5 212t-24.5 181.5q-2 11 -2 21q0 27 15 46q22 26 50 29q7 2 15 2q21 0 42 -13q28 -17 33 -63l29 -221q16 -131 31.5 -274 t27 -285.5t17.5 -253.5q1 -7 0 -14q0 -47 -24 -73q-28 -30 -62 -29q-25 0 -48.5 12t-37.5 41q-23 35 -52.5 72.5t-65.5 68.5t-77 49.5t-82 18.5q-37 0 -82 -15.5t-90 -40t-88 -57.5t-75 -66q-23 -23 -33 -47t-10 -43q2 -33 32.5 -59.5t89.5 -42.5q33 -10 86 -17 q47 -6 103 -7h16q66 1 137.5 10.5t143.5 33.5q33 10 58.5 -4t37.5 -41q10 -29 0 -57.5t-57 -44.5q-84 -29 -166 -39t-158 -10q-74 0 -135 7t-104 17q-125 31 -190 97q-67 67 -67 157z" />
<glyph unicode="e" horiz-adv-x="974" d="M141 246q12 78 40 145.5t60.5 122.5t66.5 98t62.5 72t57.5 52.5t51 33.5q25 12 54.5 21.5t61.5 12.5q14 1 27 1q18 0 35 -2q31 -4 58 -21q31 -18 47 -46.5t22 -62.5q4 -23 4 -47q0 -12 -1 -25q-3 -38 -11 -73q-18 -68 -68.5 -126t-118 -103t-145 -74.5t-149.5 -36.5 q-1 -11 -1 -21q0 -37 17 -59q23 -30 68 -38q38 -9 81 -9q35 0 71 6q83 13 164 37.5t154 53t120 43.5q33 10 54 -3.5t32 -35.5q9 -16 8 -34q0 -11 -3 -24q-9 -31 -48 -43q-47 -16 -121 -45.5t-162 -56.5t-186 -40q-44 -6 -88 -6q-53 0 -105 9q-96 16 -145 68q-71 68 -71 179 q-1 36 7 77zM332 352q45 8 94 28.5t92 49.5t73 62.5t40 70.5q6 25 5 43q0 29 -13 41q-12 7 -28 7q-6 0 -13 -1q-25 -4 -43 -14q-27 -16 -64 -53q-43 -43 -83 -105.5t-60 -128.5z" />
<glyph unicode="f" horiz-adv-x="821" d="M59 573q-2 27 16.5 51.5t57.5 28.5q29 4 64.5 6.5t68.5 6.5q16 123 49 240.5t80 215.5q55 106 123 178q20 20 52 46t72 47.5t84 37t91 15.5q45 0 81 -15.5t61.5 -40t40 -55t16.5 -61.5q3 -17 3 -34t-3 -34q-8 -29 -29.5 -45t-46.5 -16q-27 -4 -49.5 10t-26.5 43 q-4 10 -4 19q0 8 -4 22q-6 23 -23.5 36t-35.5 11q-35 -2 -79 -28.5t-83 -63.5q-25 -23 -51.5 -61.5t-44.5 -75.5q-39 -80 -64.5 -174.5t-42.5 -198.5l169 18l185 21q9 1 17 1q29 0 46 -17q22 -23 21 -52q0 -27 -16 -51t-53 -29q-94 -16 -198 -27l-191 -22q-12 -129 -14 -263 v-33q0 -116 6 -221q7 -120 20.5 -214t32.5 -143q8 -23 23.5 -37t27.5 -35q13 -24 13 -44q0 -27 -23 -48q-25 -23 -53 -24h-4q-25 0 -48 12q-63 35 -90 116q-27 92 -41 211t-18 244q-3 83 -3 165q0 41 1 82q2 122 10 220q-31 -4 -58.5 -7t-58.5 -3q-37 -2 -56.5 19t-19.5 50z " />
<glyph unicode="g" horiz-adv-x="1036" d="M141 119q0 94 50.5 181t115.5 159q43 45 99.5 89t120 77.5t131 54t130.5 20.5q33 0 64 -3t57 -19q37 -23 42 -54q1 -8 2 -17q0 -22 -11 -41q-14 -26 -42 -38t-56 7q-12 8 -26.5 10t-29.5 2q-37 0 -86 -16.5t-99 -42t-99 -61.5t-88 -75q-31 -35 -58.5 -82t-31.5 -82 q-4 -31 13 -43q5 -4 14 -3q18 0 48 18l64 37l71.5 39.5t72.5 35t67 23.5q23 5 43.5 5t39.5 -5q38 -10 58 -49q14 -27 26.5 -89.5t18.5 -142.5q5 -60 5 -125q0 -22 -1 -44q-2 -89 -20 -167q-29 -127 -103.5 -242.5t-205.5 -195.5q-20 -12 -41 -12q-11 0 -23 4q-33 10 -49 33 q-16 25 -12 53.5t39 52.5q109 68 163 155t76 187q20 88 21 160q0 22 -2 43q-8 88 -21 168q-4 27 -19.5 33t-37.5 -4q-39 -16 -96 -48l-111 -61q-59 -35 -111 -42q-16 -2 -30 -2q-33 0 -60 11q-39 16 -60.5 54.5t-21.5 93.5z" />
<glyph unicode="h" horiz-adv-x="1323" d="M212 421v17q0 147 16 278q17 138 54 252.5t99 200.5q20 31 51 35q8 1 15 1q22 0 42 -9q31 -16 41 -45q3 -8 3 -16q0 -22 -21 -48q-55 -66 -85 -168t-43 -219.5t-14 -236.5q0 -40 -1 -77q0 -74 2 -136q29 31 68 65l80 67q40 32 78 58l62 43q59 35 120 49q26 6 51 7 q31 0 59 -11q45 -16 70.5 -51t37.5 -96q8 -43 25.5 -96.5t40.5 -79.5q23 -29 49.5 -43.5t85.5 -14.5q55 0 119.5 20.5t157.5 61.5q35 16 59.5 5t38.5 -37q9 -17 9 -36q0 -11 -3 -22q-8 -31 -43 -47q-92 -41 -169 -67.5t-163 -28.5h-13q-71 0 -134 20q-70 23 -123 90 q-37 47 -56.5 106.5t-29.5 98.5q-12 51 -41 57q-4 1 -8 0q-28 0 -74 -28q-29 -16 -72 -48t-89 -71t-90 -82t-77 -82q-23 -29 -51.5 -39t-54 -5t-45 26.5t-21.5 58.5q-12 166 -13 323z" />
<glyph unicode="i" horiz-adv-x="823" d="M206 175v20q0 40 3 71q4 53 15.5 104.5t25.5 92.5q-12 4 -12 16t4 25q8 18 24.5 46t32.5 44q20 16 46 18t48 -6q29 -10 44.5 -31.5t0.5 -48.5q-23 -45 -46 -118.5t-27 -141.5q-1 -20 -1 -38.5t1 -34.5q2 -33 8 -56q10 -41 36 -54q14 -8 38 -8q18 0 42 5q35 6 91 26 l115 45q60 24 118.5 42t99.5 18h7q36 0 56 -23q24 -27 24 -58q0 -22 -16 -44q-17 -25 -58 -29q-29 -4 -79 -19t-107 -36l-114 -40q-58 -19 -102 -30q-63 -15 -113 -15q-51 0 -88 16q-73 32 -106 151q-10 39 -11 91zM457 1053q31 23 71 22q41 0 74 -22q25 -16 37 -42t12 -55 q0 -27 -12 -54.5t-39 -45.5q-32 -23 -73 -23q-3 0 -7 1q-45 2 -82 36q-34 36 -34 88q1 57 53 95z" />
<glyph unicode="j" horiz-adv-x="530" d="M14 -563q16 10 30.5 11t33.5 5q10 8 17 20.5l14 24.5q33 70 60.5 155t47 176t29.5 186.5t10 189.5q0 127 -23 246q-23 6 -30 38q-4 14 -4 35q0 23 4 39q6 23 24.5 38t40.5 22q29 8 55.5 -0.5t36.5 -36.5q29 -80 42.5 -177.5t13.5 -203.5t-12.5 -217t-36 -216.5 t-57.5 -200.5t-74 -171q-23 -41 -63 -76q-38 -33 -87 -33h-6q-49 0 -73 27q-21 24 -21 54q0 41 28 65zM176 1120q35 27 74 27q41 0 76 -27q23 -16 34 -42q11 -24 12 -49v-4q-1 -28 -13.5 -55.5t-39.5 -45.5q-29 -23 -75 -23q-47 0 -84 41q-32 36 -32 85q0 60 48 93z" />
<glyph unicode="k" horiz-adv-x="1069" d="M188 246q2 117 21 241q14 94 35.5 188.5t54.5 182.5t75 167t97 140q23 23 53 24h4q28 0 50 -15q20 -16 27 -44q2 -7 2 -14q0 -21 -15 -47q-82 -117 -131 -235.5t-76 -255.5q27 18 81 38.5t120.5 38t139.5 29.5t138 14l40 2q48 0 87 -8q39 -4 54.5 -27.5t13.5 -50.5 q-2 -33 -26 -56q-16 -16 -41 -16q-11 0 -23 3q-18 4 -45 3t-56 -1q-53 -4 -110.5 -14.5t-111.5 -24.5t-101 -30.5t-78 -33.5q-29 -12 -34 -33.5t20 -45.5q41 -35 115.5 -86.5t163.5 -102.5t181.5 -94t169.5 -57q41 -10 53 -39q6 -15 6 -30q0 -14 -5 -28q-10 -25 -34 -42 q-17 -13 -38 -13q-7 0 -14 2q-92 20 -196.5 67.5t-203 103.5t-180.5 115.5t-125 104.5q-2 -25 -3 -56l-2 -64q-1 -32 -2 -60.5t-1 -46.5q-4 -37 -24.5 -55.5t-49.5 -18.5q-27 0 -50.5 18.5t-23.5 55.5q-3 60 -2 132q-1 36 0 75z" />
<glyph unicode="l" horiz-adv-x="874" d="M199 489q0 86 16 178.5t44 177.5t63.5 159.5t72.5 128.5q66 92 130 137q53 37 101 36q11 0 21 -1q61 -8 101 -79t49 -210q2 -28 2 -58t-2 -62q-4 -65 -15.5 -130.5t-29 -128t-39.5 -113.5q-25 -57 -56.5 -109.5t-66.5 -99.5t-71 -88l-68 -75q12 -10 37.5 -24.5 t48.5 -18.5q27 -4 57 -5q26 0 55 4q61 7 127 23t133.5 37.5t128.5 44.5q16 6 31 6q17 0 33 -8q29 -14 39 -43q5 -13 5 -26q0 -15 -6 -30q-11 -30 -53 -46l-136 -48q-83 -29 -175 -49t-186 -24q-11 0 -22 -1q-81 0 -148 27q-129 53 -176 187q-45 128 -45 315v16zM352 489v-23 q0 -91 29 -167q53 63 106.5 136t87.5 155q12 31 25.5 79t23 103t14.5 111q4 39 4 75q0 14 -1 27q-6 113 -41 121q-3 1 -7 1q-32 0 -83 -79q-27 -41 -53.5 -101.5t-50 -133t-38 -151.5t-16.5 -153z" />
<glyph unicode="m" horiz-adv-x="1978" d="M228 306q1 77 3 144.5t5 110.5q4 41 27.5 59.5t51.5 18.5h6q27 0 49.5 -18.5t22.5 -53.5q0 -33 -3 -99l-4 -88q-1 -42 -1 -82q0 -53 2 -103l29 39q16 24 39 47q31 33 61 70l59 73q35 43 88.5 84t106.5 51q14 2 28 3q32 0 61 -14q42 -19 73 -87l33 -86l26 -74 q4 -18 16.5 -19t24.5 13l42 45l49 49l51 47l43 39q141 121 239 121h5q52 0 87 -38q37 -40 54 -118q14 -78 41.5 -154.5t60.5 -117.5q28 -32 61 -32h2q35 1 68 11l77 25q40 12 80 22.5t75.5 18.5t62.5 10h7q46 0 75 -24q23 -19 23 -45q0 -20 -15 -43q-10 -16 -29.5 -32 t-42.5 -18q-8 0 -12 2.5t-20 4.5q-27 -4 -91.5 -19.5t-130.5 -38.5q-72 -25 -144 -25q-10 0 -20 1q-83 4 -145 75q-47 53 -75.5 132t-51.5 167q-12 47 -43 48q-35 0 -108 -56q-16 -10 -45 -35.5t-64 -61.5l-71 -76q-36 -40 -66 -79q-14 -20 -37 -30.5t-45 -10.5 q-23 0 -45.5 11.5t-34.5 33.5q-27 57 -48.5 129t-43.5 121q-14 27 -45 21q-37 -2 -76 -56q-33 -47 -75 -93l-83 -93q-33 -37 -67 -89l-60 -91q-20 -33 -53 -40q-12 -3 -23 -3q-19 0 -36 8q-23 10 -37 32.5t-16 55.5q-4 66 -7 145q-1 53 -1 104v51z" />
<glyph unicode="n" horiz-adv-x="1396" d="M199 444q4 18 15 46t26 45q10 14 28 19q13 4 29 4q6 0 12 -1q25 -2 45.5 -15.5t24.5 -39.5q2 -29 4 -70t2 -86v-86q0 -43 -2 -76q27 39 68 75l77 69l89 82q46 41 88 69q45 35 101 56q51 19 96 18h9h7q55 0 96 -33q43 -35 53 -106q10 -80 22.5 -141.5t30.5 -102.5 q23 -49 68 -54q10 -1 19 -1l71 14l143 58q78 32 142 46q14 3 26 4q28 0 45 -17q27 -26 27 -69q0 -19 -10 -37q-12 -22 -39 -32q-12 -4 -25.5 -7t-30.5 1l-98 -38q-57 -22 -121 -50q-74 -31 -142 -32q-34 0 -68 8q-99 24 -150 132q-35 72 -45 140.5l-17 113.5q-6 29 -34 33 q-18 4 -42 -4t-51 -25q-20 -14 -44 -36l-50 -45l-54 -48q-28 -25 -54 -43q-25 -18 -54.5 -47t-57.5 -59.5t-49.5 -60t-31.5 -50.5q-23 -41 -54 -47q-11 -2 -21 -2q-20 0 -39 8q-29 12 -38.5 32.5t-9.5 45.5v113v112q0 53 -1 100.5t-1 80.5q-30 7 -30 36z" />
<glyph unicode="o" horiz-adv-x="1171" d="M186 227q12 61 38 117.5t63 104t82 84t94 61.5q43 22 90 21h4q49 -1 90 -40q18 6 41 7.5t39 -2.5q35 -4 74 -21.5t63 -40.5h170q37 0 61 -24q22 -23 21 -51q0 -21 -8 -37.5t-25 -24.5q-35 -10 -92 -10q12 -16 24 -45q12 -31 12 -71q0 -35 -12 -75q-13 -43 -50 -86 q-113 -133 -246 -192q-57 -27 -120.5 -37t-135.5 -12q-6 0 -12 -1q-176 0 -244 115q-34 59 -34 144q0 53 13 116zM340 197q-7 -37 -7 -67q0 -49 19 -77q33 -49 109 -49h21q47 0 86 7q48 9 85 26q53 23 102.5 63.5t88.5 87.5q28 34 28 70q0 14 -5 29q-15 51 -62 84 q-31 0 -73 -1q-14 0 -27 -1q-27 0 -52 2q-57 0 -91 19.5t-23 49.5q-6 4 -13 4q-4 0 -9 -2l-28 -10q-43 -29 -90 -92t-59 -143z" />
<glyph unicode="p" horiz-adv-x="1062" d="M82 659q0 33 22 60q21 25 63 25q3 0 7 -1q215 -10 388 -57t302 -108q90 -41 132 -100.5t42 -126.5q0 -58 -39 -113q-41 -57 -120 -101l-32 -15l-43 -20q-24 -10 -46.5 -21t-36.5 -20q-20 -12 -49 -26.5t-61.5 -28.5t-65.5 -23.5t-60 -9.5q-43 2 -67.5 23.5t-26.5 52.5 q0 41 39 80q20 16 48 21.5t50 -5.5q8 0 24.5 6.5l36 14.5t39.5 19l36 22q14 8 34 17l40 18q19 8 36 14t25 12q37 20 52 43t15 43q0 27 -22.5 51.5t-63.5 43.5q-25 12 -67.5 29.5t-95 34.5t-108.5 32.5t-108 21.5q-14 -133 -26.5 -280.5t-20.5 -295t-12 -286.5 q-3 -93 -3 -176q0 -41 1 -80q31 -18 37 -61q2 -20 -6.5 -49t-28.5 -48q-20 -23 -45 -30q-15 -5 -29 -5q-9 0 -17 2q-22 5 -38 23.5t-20 48.5q-4 16 -5.5 40t-1.5 46q-1 44 0 89q0 111 3 224q5 157 14.5 307t20.5 289l22 259q-14 2 -29 2h-27q-14 2 -26 2q-10 0 -27 4 q-29 10 -42 28.5t-13 38.5z" />
<glyph unicode="q" horiz-adv-x="1128" d="M178 150q6 94 35 181t72 152q63 100 152 177t177 122q43 23 87 36t85 13q43 0 78 -17t58 -54q15 -26 15 -48q0 -8 -2 -16q-7 -29 -26 -45q-24 -18 -48.5 -18t-51.5 18q-23 20 -47.5 17.5t-67.5 -21.5q-37 -16 -76.5 -44t-77.5 -60.5t-70 -69.5t-52 -72 q-35 -57 -52.5 -107t-23.5 -110q-4 -27 3 -44t17 -27q13 -11 32 -11q26 0 63 23l110 71l117 71q57 34 108.5 60.5t90.5 39.5q14 4 27 3q34 0 65 -22q25 -16 35 -46q4 -12 4 -26q0 -19 -8 -38q-35 -86 -66 -199t-52.5 -220.5t-29.5 -196.5q-4 -40 -4 -69q0 -37 6 -59 q18 -10 36 -28.5t18 -48.5q0 -32 -23 -61q-23 -30 -61 -30h-5q-66 4 -93 52.5t-32 105.5q-3 26 -2 59q0 37 3 82q7 84 22.5 171t35 169t38.5 137q10 25 -2.5 32t-28.5 -3q-23 -10 -53 -29l-67 -40l-74 -46q-38 -25 -74 -45q-79 -45 -144 -45h-6q-68 2 -112 43 q-58 54 -58 160q-1 10 0 21z" />
<glyph unicode="r" horiz-adv-x="974" d="M201 472q0 9 6 17q12 18 20.5 37t16.5 39q10 29 36 36q14 4 28 4q13 0 26 -3q23 -8 40 -26.5t11 -47.5q-4 -18 -8 -42.5t-7 -51t-4 -52.5t-1 -44q14 16 27 27l30 22q45 31 104.5 61.5t121 56t121.5 42t108 18.5q6 0 11 1q34 0 62 -11q33 -12 51 -25q29 -23 29 -55 q0 -31 -16 -55q-14 -23 -38 -31t-54 8q-23 10 -40.5 13.5t-33.5 -0.5q-33 -4 -77 -18.5t-93 -35t-97.5 -47t-91.5 -53.5q-35 -23 -59 -45.5t-35 -40.5q-16 -29 -22 -54.5t-11 -54.5q-4 -39 -25.5 -56t-49.5 -17q-29 0 -51.5 20.5t-24.5 61.5q-2 39 -2 90v102q0 53 3 101.5 t7 85.5q-18 5 -18 23z" />
<glyph unicode="s" horiz-adv-x="821" d="M103 -326q-4 15 -4 29q0 18 7 35q14 31 47 42q10 4 20 3q23 0 50 -16q16 -12 37 -11.5t37 11.5q68 41 132.5 101t98.5 118q23 35 33.5 67.5t10.5 66.5q0 48 -35 83q-39 35 -105 66l-143 67q-70 29 -104.5 72t-34.5 92q0 47 36.5 98t110.5 98q39 27 92 55.5t112.5 52 t124 40t126.5 18.5h10q35 0 63 -11q33 -13 52 -36q23 -25 22 -53q0 -29 -16 -51q-12 -18 -34 -28.5t-50.5 -0.5t-57.5 29q-29 0 -73.5 -11.5t-94 -30t-97.5 -42t-83 -47.5q-53 -35 -55 -66q0 -27 49 -53q61 -33 120.5 -59.5t129.5 -79.5q47 -39 67.5 -94.5t20.5 -108.5 q0 -57 -18.5 -113.5t-49.5 -101.5q-53 -82 -127.5 -154t-179.5 -129q-47 -27 -98 -27q-49 0 -96 23q-44 22 -53 57z" />
<glyph unicode="t" horiz-adv-x="776" d="M76 547q0 29 18.5 52.5t57.5 27.5q27 0 65.5 1t83.5 1q0 63 5 145t16.5 171t27 178t33.5 169q-23 10 -14 39q4 14 16 33.5l23 38.5l8 21q4 11 8 20q14 33 45 40q9 2 18 2q21 0 39 -11q23 -12 37.5 -35t11.5 -54q0 -23 -8 -38t-18 -31q-18 -68 -34.5 -156t-30 -181 t-20.5 -185.5t-7 -165.5q23 0 62.5 -1t83.5 -3t88 -5.5t75 -7.5t46 -25.5t15 -47.5q0 -27 -18 -48.5t-57 -23.5q-45 0 -130 4t-167 4q0 -57 4 -119.5t11 -121t15.5 -111.5t18.5 -92q8 -35 -9.5 -58.5t-43.5 -29.5q-10 -3 -21 -3q-19 0 -39 10q-31 15 -41 58q-23 90 -36 213 t-13 254h-149q-37 -2 -56.5 20.5t-19.5 51.5z" />
<glyph unicode="u" horiz-adv-x="1392" d="M198 188q-1 23 -1 47q0 46 4 93q6 70 19 129t26 94q12 33 36.5 47t51.5 14q31 0 54 -23q15 -15 15 -36q0 -13 -6 -29q-14 -45 -24.5 -100t-16.5 -110q-5 -41 -4 -78v-25q2 -49 13 -82q14 -51 65 -68q17 -5 38 -5t45 5q48 10 97 45q121 86 199 193t113 205q12 29 38.5 38 t55.5 5q29 -8 47 -29.5t10 -52.5q-23 -90 -24 -164q0 -7 -1 -14q0 -64 17 -111q16 -41 47 -53q23 -9 51 -9q9 0 19 1q59 6 115.5 27.5t97.5 43.5q23 14 42 14q10 0 19 -3q27 -10 39 -39q9 -17 9 -38q0 -8 -2 -17q-5 -30 -38 -50q-47 -29 -116.5 -53.5t-147.5 -38.5 q-23 -3 -47 -3q-47 0 -94 13q-72 20 -109 78q-16 29 -25.5 60.5t-13.5 78.5q-41 -53 -100 -111.5t-113 -92.5q-84 -55 -163 -73q-41 -9 -80 -9q-36 0 -70 8q-59 14 -101 53t-65 100q-18 55 -21 125z" />
<glyph unicode="v" horiz-adv-x="960" d="M135 543q0 16 3 30l5 25q8 41 34 61q23 19 49 19h5q25 -2 45.5 -20.5t24.5 -59.5q2 -35 7 -82t12.5 -100.5t18.5 -109.5t28 -107l18 -49q10 -27 21 -44q14 -20 24 -31.5t21 -11.5q10 2 22 11.5t25 31.5q41 70 80.5 157t70.5 175q-14 10 -19 25.5t-5 32.5q0 59 65 86 q19 8 37 8t34 -8q32 -16 44 -47q18 -6 43 -7h45q39 6 57.5 -15t18.5 -50t-18.5 -56.5t-57.5 -31.5q-23 -2 -51 -2q-27 0 -56 6l-35 -89q-19 -48 -42 -99l-46 -98q-24 -48 -47 -89q-78 -137 -165 -137q-86 0 -164 125q-18 31 -37 74t-33 84q-27 80 -40 168t-23 174 q-10 8 -14.5 22.5t-4.5 28.5z" />
<glyph unicode="w" horiz-adv-x="1744" d="M170 141q0 74 20.5 146.5t56.5 133t85 100.5t104 50q12 2 29 2q18 0 29 -2q35 -4 53 -26.5t16 -50.5q-2 -25 -15 -43.5t-42 -18.5h-27q-12 0 -22 -4q-23 -8 -45.5 -32.5t-41 -61.5t-30.5 -82t-14 -94q0 -47 41 -72q15 -6 37 -6q13 0 28 2q41 6 80 33q27 16 58 41l65 51 l63 53l56 49q37 35 78 35h9q46 -4 58 -43q6 -20 15 -47l20 -54q10 -28 23.5 -53.5t25.5 -40.5q29 -31 63.5 -44t77.5 -15q55 0 118 18.5t124 47.5q102 51 131 110q15 29 15 59q0 36 -19 76q-25 45 -62 92l-73 87q-28 32 -28 60q0 31 22 52q23 25 59 27h6q34 0 64 -23 q20 -12 33.5 -29.5t11.5 -45.5q29 -29 55.5 -70t44.5 -76q37 -66 43 -134q1 -10 1 -21q0 -59 -30 -119q-27 -53 -75.5 -97.5t-128.5 -85.5q-66 -33 -147 -57t-167 -24q-70 0 -132 22.5t-111 77.5q-23 25 -41.5 56.5t-28.5 55.5q-6 23 -25 23q-16 0 -32 -16 q-29 -27 -66 -55.5l-92 -67.5q-86 -63 -177 -67h-12q-83 0 -145 40q-41 29 -65.5 74t-24.5 104z" />
<glyph unicode="x" horiz-adv-x="1083" d="M-88 -121q6 31 33 58l90 79q47 41 105 87l130 102l162 125l-50 83q-24 40 -42 66q-41 0 -59 29q-10 16 -11.5 36.5t-1.5 39.5q2 25 17.5 46t38 31.5t48 6.5t48.5 -29q14 -16 32 -45l35 -59l36 -61q17 -30 32 -48l104 78l109 81l104 79l93 71q21 17 41 17q7 0 15 -2 q28 -8 44 -31q20 -25 19 -54.5t-31 -56.5l-198 -146q-110 -79 -216 -165q88 -123 168 -188q43 -37 91 -46q13 -2 25 -2q34 0 64 17q31 14 56.5 7t37.5 -30q15 -22 15 -47v-12q-4 -33 -39 -53q-60 -34 -137 -34q-12 0 -25 1q-92 6 -182 80q-100 86 -195 213l-103 -77 l-110 -86l-109 -89l-104 -88q0 -25 -20.5 -52.5t-53.5 -35.5q-13 -3 -25 -3q-21 0 -38 9q-27 14 -38 41q-7 17 -7 36q0 10 2 21z" />
<glyph unicode="y" horiz-adv-x="1325" d="M154 166q0 49 15 105.5t39.5 109.5t52.5 98t50 72q23 29 53.5 33t53.5 -6q33 -16 41 -49q2 -7 1 -13q0 -26 -24 -57q-18 -23 -38.5 -57.5t-39 -71.5t-30 -74t-11.5 -66q0 -23 8.5 -36t16.5 -21q18 -18 48 -12t71 33q61 39 128 91l134 110l132 118l120 113q25 27 59 32 q13 2 26 3q21 0 40 -7q27 -10 46 -34.5t23 -65.5q4 -47 5 -123q0 -76 -6.5 -169t-15.5 -198.5t-23.5 -214t-31 -215t-36.5 -200.5q-8 -41 -37 -58q-21 -12 -42 -11l-15 1q-31 4 -51 30q-13 17 -12 41q0 13 3 28q25 96 43.5 214.5t30.5 241.5t19.5 241t9.5 212 q2 18 -4.5 26.5t-17.5 10.5t-23.5 -4.5t-22.5 -16.5l-82 -74l-104 -89l-112 -89q-56 -43 -103 -73q-86 -53 -165 -67q-15 -3 -30 -3q-62 0 -119 45q-25 23 -48 61.5t-25 104.5z" />
<glyph unicode="z" horiz-adv-x="923" d="M160 43q8 35 37 72q37 47 79.5 92t84.5 84l79 71l64 58q33 29 33 51q0 5 -2 10q-4 20 -52 21q-63 0 -133.5 3t-107.5 7q-39 4 -60.5 27.5t-21.5 52.5q0 39 37 61q25 16 53 17q31 0 53 -17q25 -2 57 -3l67 -2l66 -2q32 -1 54 -1q70 0 116 -23.5t62 -66.5q9 -20 9 -44 t-9 -50q-18 -53 -80 -113l-56 -51l-68 -61l-70 -68q-35 -35 -64 -72q-14 -16 -9 -29.5t30 -15.5q23 -2 54 -2q23 0 51 1q65 3 136.5 10.5t141 19.5t122.5 29q35 10 59.5 -6.5t31.5 -43.5q1 -7 1 -14q0 -18 -8 -38q-10 -28 -45 -38q-51 -18 -141 -35.5t-190.5 -27.5 t-197.5 -11q-7 0 -15 -1q-88 0 -148 12q-76 12 -98 76q-6 15 -6 32q0 14 4 29z" />
<glyph unicode="{" horiz-adv-x="550" d="M42 623.5q-5 21.5 1 42t22.5 36t43.5 19.5q35 2 60.5 27.5t51.5 46.5q33 39 38 89t-3 104t-20.5 109.5t-12.5 104.5q-23 68 -13.5 136.5t42.5 127t86 103.5t121 63q39 14 67.5 -1t38.5 -43.5t0 -60.5t-49 -46q-29 -10 -53.5 -25.5t-46.5 -36.5q-29 -55 -32 -114.5t4 -121 t19.5 -124t17.5 -124t-6 -121.5t-48 -116q-23 -14 -44 -31l-44 -36q16 -23 25 -49.5t16 -55.5q43 -88 56 -180t17 -185t7.5 -186.5t21.5 -185.5l12 -2q35 -2 67 4l64 12q41 8 67 -12t32 -50t-9.5 -59.5t-56.5 -37.5q-61 -14 -124.5 -21.5t-125.5 15.5q-57 33 -77.5 86 t-26.5 113.5t-6 123.5t-15 117q12 57 8 114.5t-17 113.5t-31.5 111.5t-34.5 110.5l-47 22q-24 11 -39 34q-19 18 -24 39.5z" />
<glyph unicode="|" horiz-adv-x="620" d="M222 -364.5q-9 14.5 3 47.5q16 37 23.5 126t10.5 208.5t2 263t-1 290.5q0 150 1 293.5t7 263t18.5 208.5t35.5 126q25 41 49 60.5t47 9.5q23 -14 32 -32.5t5 -59.5q-2 -25 -16.5 -51.5t-35.5 -55.5q-14 -127 -17 -291.5t-1 -340.5l4 -348q2 -173 -1 -318.5t-14.5 -251 t-37.5 -143.5q-16 -27 -36.5 -33t-43.5 2q-25 12 -34 26.5z" />
<glyph unicode="}" horiz-adv-x="610" d="M-67.5 -259q6.5 30 33 50.5t67.5 11.5l64 -12q32 -6 67 -4l12 2q18 92 21.5 185.5t7.5 186.5t17.5 185t56.5 180q6 29 15 55.5t25 49.5l-44 36q-22 17 -44 31q-39 55 -49 115.5t-5 122t17.5 124t19.5 124t4 121t-32 114.5q-23 20 -47 35.5t-53 26.5q-39 14 -50 46t0 60.5 t39.5 44t67.5 0.5q68 -18 121 -63t86 -103.5t41 -127t-12 -136.5q0 -49 -12.5 -104.5t-20.5 -109.5t-4 -104t39 -89q27 -20 52.5 -46t60.5 -28q27 -4 43 -19.5t22 -36t1 -42t-23 -39.5q-16 -23 -40 -34l-46 -22q-16 -55 -35 -110.5t-32 -111.5t-17.5 -113.5t8.5 -114.5 q-14 -53 -15 -117q0 -63 -6 -123.5t-26.5 -114t-77.5 -85.5q-61 -23 -125 -16t-125 22q-41 8 -57.5 37.5t-10 59.5z" />
<glyph unicode="~" horiz-adv-x="772" d="M204 814.5q-9 19.5 7 45.5q33 68 81 98.5t95 30.5q70 0 139 -53q59 -43 82 -43q25 0 37 41q10 29 32.5 36t41.5 1q20 -8 31.5 -26.5t3.5 -41.5q-18 -72 -55 -101.5t-83 -27.5q-76 0 -155 68q-37 31 -68 30q-41 0 -82 -65q-14 -25 -37.5 -29t-44.5 8q-16 9 -25 28.5z" />
<glyph unicode="&#xa2;" horiz-adv-x="903" d="M160 384q6 60 45 128q45 80 118.5 147.5t143.5 104.5q4 66 13 126t18 93q6 27 29.5 37t47.5 6q23 -4 38.5 -19.5t4.5 -43.5q-10 -33 -15 -73t-11 -81q23 8 50.5 9t39.5 -1q35 -4 50.5 -22.5t15.5 -40.5q0 -23 -15.5 -44.5t-38.5 -31.5q-20 -8 -48 -11t-44 11 q-6 -4 -12 -5t-10 -5q-8 -84 -15.5 -177.5t-5.5 -185.5q35 0 72 12.5t59 26.5q29 18 60.5 45t56.5 39q27 10 49.5 5t36.5 -21q16 -18 14 -42t-35 -44q-23 -16 -49 -38t-67 -46q-37 -23 -88.5 -42.5t-104.5 -23.5q0 -31 1 -58.5t9 -39.5q20 -8 28.5 -25.5t7.5 -37t-12 -35 t-30 -21.5q-41 -14 -72.5 8.5t-41.5 71.5q-4 23 -8.5 62.5t-4.5 70.5q-102 6 -166.5 33.5t-92 73t-21.5 105.5zM306.5 348q23.5 -41 131.5 -45q-4 72 2 153l11 152q-35 -25 -73 -63.5t-63 -89.5q-32 -66 -8.5 -107z" />
<glyph unicode="&#xa3;" horiz-adv-x="1128" d="M125 4q0 18 10 31q10 16 28.5 23.5t39.5 2.5l71 -9q41 -5 85 -11t89.5 -10t83.5 -6q16 10 15.5 33.5t-15.5 47.5q-6 12 -21 35l-36 50l-42 60q-22 32 -40 62h-100q-29 2 -47.5 19.5t-18.5 42.5q0 16 7.5 30.5t25.5 20.5q14 4 30.5 6t43.5 2q-31 53 -48.5 109.5 t-17.5 111.5q0 82 44 154t155 123q39 16 89 30.5t102.5 22.5t101.5 8q51 0 92 -8q53 -10 104.5 -41t71.5 -70q16 -41 -14 -73q-10 -10 -22.5 -16.5t-28.5 -6.5q-31 2 -65 10.5t-62 28.5q-27 16 -23 47q-20 4 -55 5t-75 -3t-81 -14t-78 -27q-63 -29 -93 -69.5t-30 -87.5 q0 -49 19.5 -104.5t58.5 -125.5q86 0 181.5 5.5t166.5 5.5q33 0 48.5 -20.5t15.5 -41.5q0 -25 -17.5 -43t-46.5 -18l-132 -5q-77 -3 -148 -4l60 -90q30 -43 46 -69q23 -33 32 -72t-9 -66q49 -4 98 -3t92 7.5t76 18.5t49 33q20 25 46 27.5t48.5 -9.5t28.5 -36.5t-12 -53.5 q-31 -51 -99.5 -74.5t-148.5 -31t-156 -3.5l-123 5q-49 -29 -109 -37t-118.5 1t-112 35.5t-90.5 67.5q-20 19 -20 37z" />
<glyph unicode="&#xa5;" horiz-adv-x="1091" d="M63 188q6 29 28 49.5t50 26.5q25 6 71 7t99 -1l26.5 45.5t27.5 44.5q-35 2 -63 1t-40 -3q-10 0 -22.5 -9t-22.5 -15q-16 -10 -34.5 -8t-32.5 14q-29 20 -23 61q6 29 27.5 49.5t50.5 26.5q25 6 71 7t101 -1q-57 102 -92 187.5t-58.5 159t-38 136t-30.5 119.5 q-10 27 6 48.5t42.5 32t54.5 2t40 -43.5q23 -61 37 -119.5t32.5 -121t46 -134t77.5 -159.5q20 33 30.5 52.5t19.5 33.5t17 29.5t25 38.5l42 62l68 101q98 145 197 262q25 27 58.5 25t56 -18.5t28.5 -45t-22 -59.5q-47 -53 -96.5 -116.5t-92.5 -129.5l-67 -101l-38 -55 l-22 -31q-8 -11 -17 -28.5t-27 -47.5l-50 -87q31 -2 56.5 -1t44.5 3q29 4 45 -14.5t16 -40.5q2 -20 -12.5 -38.5t-44.5 -23.5q-29 -4 -68 -5t-82 1q-14 -10 -27 -10q-10 -16 -21 -37l-26 -45q47 -2 88 -3t68 3q29 4 45 -14.5t16 -40.5q2 -20 -12 -38.5t-45 -23.5 q-41 -4 -102 -4t-127 2l-51 -82q-25 -39 -41 -61q-23 -29 -53.5 -31t-53.5 15q-25 16 -33 41.5t15 58.5l19 32l20 32q-23 0 -39 -5q-10 0 -22.5 -9t-22.5 -15q-16 -10 -35 -8t-33 14q-29 20 -23 61z" />
<glyph unicode="&#xa9;" horiz-adv-x="1769" d="M48 519.5q-7 101.5 28 221.5q18 63 43 138l50 147l51 143q26 70 44 125q53 180 167 293t261 135q111 12 227.5 -27.5t245.5 -144.5q109 -88 192 -196.5t143.5 -219t99 -215t57.5 -186.5q27 -23 32 -48.5t-12 -47.5q12 -47 22.5 -110.5t12.5 -98.5q6 -59 -24.5 -85 t-65.5 -38q-31 -4 -67.5 8.5t-41.5 34.5q-2 10 -5 27.5t-5 34.5q-68 -66 -142.5 -122.5t-143.5 -90.5q-90 -45 -185.5 -66.5t-187.5 -28t-175 -1.5t-149 14q-143 10 -250.5 68.5t-167.5 148.5q-47 86 -54 187.5zM204 503.5q1 -71.5 32 -124.5q29 -41 84 -73t141 -48 q199 -29 380 -10.5t310 84.5q100 45 187 121.5t175 193.5q-18 86 -62 197.5t-107.5 225.5t-145.5 218.5t-180 175.5q-98 74 -179 98.5t-143 20.5q-104 -8 -170.5 -92t-113.5 -217l-53 -147q-30 -81 -57.5 -165.5t-50 -163.5t-30.5 -141q-18 -82 -17 -153.5zM333 680 q1 70 50 156q31 53 74 103t97 94t115.5 80t129.5 61q25 8 59.5 10t59.5 -2q47 -6 68.5 -30t23.5 -52q0 -29 -19.5 -54.5t-54.5 -31.5q-25 -6 -53.5 -3t-57.5 13q-37 -10 -81 -34.5t-85 -60.5t-76.5 -77t-56.5 -82q-16 -31 -17 -60.5t17.5 -52t54 -36t93.5 -13.5 q102 0 201.5 18.5t184.5 45t147.5 55.5t90.5 45q31 16 58.5 9t44.5 -29q16 -27 13 -58.5t-42 -54.5q-37 -20 -105.5 -51t-158.5 -58.5t-199.5 -48t-228.5 -22.5q-111 -2 -189.5 24.5t-118.5 76.5t-39 120z" />
<glyph unicode="&#xad;" d="M279 369q6 29 27.5 49t49.5 26q33 8 101 9q68 0 143.5 -3.5t145 -5.5t110.5 2q29 4 45.5 -14t16.5 -41q2 -20 -12.5 -38.5t-45.5 -22.5q-43 -4 -110 -4q-68 0 -135.5 1t-124 2t-76.5 -3q-10 0 -22.5 -9.5t-22.5 -15.5q-16 -10 -35 -8t-33 14q-28 21 -22 62z" />
<glyph unicode="&#xae;" horiz-adv-x="1034" d="M100 975l24 73l27 78l26 76l24 66q29 96 89 156.5t140 72.5q59 6 121.5 -15.5t130.5 -76.5q57 -47 101 -104.5t77 -117t53.5 -114.5t30.5 -98q14 -12 17.5 -27.5t-5.5 -25.5q6 -25 11.5 -60t5.5 -51q4 -33 -13.5 -46t-33.5 -20q-16 -4 -36 3.5t-22 19.5q-2 6 -3 15t-3 18 q-37 -35 -77 -66t-74 -49q-49 -25 -100.5 -36t-100.5 -14t-93 0t-79 7q-78 6 -134.5 37t-88.5 80q-50 94 -15 219zM169 847q1 -38 17 -67q31 -47 121 -65q104 -14 201.5 -4t167.5 45q53 25 99 64.5t93 103.5q-10 45 -33.5 105.5t-57.5 120.5t-78 115.5t-97 92.5 q-51 41 -94 54t-76 9q-55 -4 -91 -48t-60 -116l-28 -77l-31 -88q-15 -45 -26.5 -88t-17.5 -76q-10 -43 -9 -81zM318 1062q-1 7 4 13q6 10 10 20.5t10 20.5q4 16 18.5 20.5t28.5 0.5q12 -4 21.5 -14.5t5.5 -24.5q-4 -20 -7 -51t-3 -52q12 14 30 27q25 16 56.5 32.5t64.5 30 t64.5 21.5t58.5 10q23 0 39 -6t26 -12q14 -12 15 -31q0 -16 -8 -27q-6 -12 -19.5 -17t-30.5 3q-12 8 -20 9t-18 -1q-35 -6 -90.5 -29.5t-100.5 -52.5l-32 -25q-13 -11 -19 -22q-10 -16 -12 -28.5t-4 -28.5q-2 -20 -14.5 -29.5t-29.5 -9.5q-14 0 -26 11t-12 32 q-2 43 -1 103.5t5 97.5q-9 2 -10 9z" />
<glyph unicode="&#xb4;" horiz-adv-x="649" d="M191.5 803.5q5.5 21.5 31.5 38.5l75 38l85 43l85 43l73 38q23 16 43 9t32 -28q14 -23 9.5 -44t-27.5 -36l-73 -41l-87 -47l-88 -46l-74 -36q-29 -12 -49 -4t-30 31q-11 20 -5.5 41.5z" />
<glyph unicode="&#x2000;" horiz-adv-x="862" />
<glyph unicode="&#x2001;" horiz-adv-x="1724" />
<glyph unicode="&#x2002;" horiz-adv-x="862" />
<glyph unicode="&#x2003;" horiz-adv-x="1724" />
<glyph unicode="&#x2004;" horiz-adv-x="573" />
<glyph unicode="&#x2005;" horiz-adv-x="430" />
<glyph unicode="&#x2006;" horiz-adv-x="286" />
<glyph unicode="&#x2007;" horiz-adv-x="286" />
<glyph unicode="&#x2008;" horiz-adv-x="215" />
<glyph unicode="&#x2009;" horiz-adv-x="344" />
<glyph unicode="&#x200a;" horiz-adv-x="94" />
<glyph unicode="&#x2010;" d="M279 369q6 29 27.5 49t49.5 26q33 8 101 9q68 0 143.5 -3.5t145 -5.5t110.5 2q29 4 45.5 -14t16.5 -41q2 -20 -12.5 -38.5t-45.5 -22.5q-43 -4 -110 -4q-68 0 -135.5 1t-124 2t-76.5 -3q-10 0 -22.5 -9.5t-22.5 -15.5q-16 -10 -35 -8t-33 14q-28 21 -22 62z" />
<glyph unicode="&#x2011;" d="M279 369q6 29 27.5 49t49.5 26q33 8 101 9q68 0 143.5 -3.5t145 -5.5t110.5 2q29 4 45.5 -14t16.5 -41q2 -20 -12.5 -38.5t-45.5 -22.5q-43 -4 -110 -4q-68 0 -135.5 1t-124 2t-76.5 -3q-10 0 -22.5 -9.5t-22.5 -15.5q-16 -10 -35 -8t-33 14q-28 21 -22 62z" />
<glyph unicode="&#x2012;" d="M279 369q6 29 27.5 49t49.5 26q33 8 101 9q68 0 143.5 -3.5t145 -5.5t110.5 2q29 4 45.5 -14t16.5 -41q2 -20 -12.5 -38.5t-45.5 -22.5q-43 -4 -110 -4q-68 0 -135.5 1t-124 2t-76.5 -3q-10 0 -22.5 -9.5t-22.5 -15.5q-16 -10 -35 -8t-33 14q-28 21 -22 62z" />
<glyph unicode="&#x2013;" d="M279 369q6 29 27.5 49t49.5 26q33 8 100.5 7.5t143.5 -4t145.5 -5.5t110.5 2q29 4 45.5 -14t16.5 -41q2 -20 -12.5 -38.5t-45.5 -22.5q-43 -4 -110 -4q-68 0 -135.5 2t-124 3t-76.5 -3q-10 0 -22.5 -9.5t-22.5 -15.5q-16 -10 -35 -8t-33 14q-28 21 -22 62z" />
<glyph unicode="&#x2014;" horiz-adv-x="1515" d="M276 381q0 20 11.5 37.5t36.5 27.5q37 14 73.5 20.5t51.5 -15.5q29 0 97 -1t157.5 -2.5t191.5 -2.5t197 -1h176q80 0 125 5q29 4 45 -16.5t16 -43.5t-14.5 -41t-42.5 -20q-39 -4 -112 -5t-165 -1t-194 1l-201 2q-98 1 -183 2t-141 1q-14 -6 -32.5 -8.5t-30.5 -0.5 q-29 4 -45.5 21.5t-16.5 40.5z" />
<glyph unicode="&#x2018;" horiz-adv-x="280" d="M146.5 1205q3.5 44 21.5 75q16 27 39.5 34t46.5 -3q18 -8 31.5 -24.5t13.5 -41.5q0 -23 -7 -36t-20 -25q-6 -31 5.5 -79t31.5 -79q16 -25 7 -47.5t-25 -32.5q-51 -29 -88 21q-18 25 -32.5 64.5t-21 84.5t-3 89z" />
<glyph unicode="&#x2019;" horiz-adv-x="280" d="M154 1233q-4 23 6 42t26 30q18 14 45 12t45 -27q23 -29 34.5 -70.5t13.5 -85.5t-5.5 -87t-19.5 -74q-12 -29 -37.5 -35t-48.5 2t-33 27.5t2 48.5q6 16 10.5 37.5t6.5 44t0 44t-9 36.5q-28 18 -36 55z" />
<glyph unicode="&#x201c;" horiz-adv-x="536" d="M101 1206q3 43 22 74q16 27 39.5 34t46.5 -3q18 -8 31.5 -24.5t13.5 -41.5q0 -23 -7 -36t-20 -25q-6 -31 5.5 -79t31.5 -79q16 -25 8 -47.5t-26 -32.5q-23 -12 -47.5 -9t-40.5 30q-18 27 -32.5 66.5t-21 84.5t-3.5 88zM425 1204q3 43 21 74q16 27 40 34t46 -3 q18 -8 32 -24.5t14 -41.5q0 -23 -7.5 -36t-19.5 -25q-6 -31 5 -79t32 -79q16 -25 8 -47.5t-27 -32.5q-23 -12 -47 -9t-41 30q-18 27 -32.5 66.5t-20.5 84.5t-3 88z" />
<glyph unicode="&#x201d;" horiz-adv-x="536" d="M106 1233q-4 23 6.5 42t26.5 30q18 14 45 12t45 -27q23 -29 34 -70.5t13.5 -85.5t-5 -87t-19.5 -74q-12 -29 -38 -35t-48.5 2t-32.5 27.5t2 48.5q6 16 10.5 37.5t6.5 44t0 44t-9 36.5q-29 18 -37 55zM428 1231q-4 23 6 42t27 30q18 14 44.5 12t45.5 -27q23 -29 34 -70.5 t13 -86t-5 -87.5t-20 -73q-12 -29 -37.5 -35t-48 2t-33 27.5t2.5 48.5q6 16 10 37.5t6 44t0 44t-8 36.5q-29 18 -37 55z" />
<glyph unicode="&#x2022;" horiz-adv-x="722" d="M106 578q0 51 19.5 97t54.5 81t80 54t98 19q51 0 97.5 -19t81 -54t54 -81t19.5 -97q0 -53 -19.5 -98.5t-54 -80t-80.5 -54t-98 -19.5q-53 0 -98 19.5t-80 54t-54.5 80t-19.5 98.5z" />
<glyph unicode="&#x2026;" horiz-adv-x="1226" d="M145 43q0 47 41 80q31 23 69 20.5t62 -20.5q20 -14 29.5 -38t9.5 -48q0 -25 -9 -47.5t-30 -36.5q-33 -23 -73.5 -22t-69.5 34t-29 78zM545 43q0 47 41 80q31 23 68.5 20.5t62.5 -20.5q20 -14 29.5 -38t9.5 -48q0 -25 -9.5 -47.5t-29.5 -36.5q-33 -23 -74 -22t-69.5 34 t-28.5 78zM924 41q0 47 41 80q31 23 68.5 20.5t62.5 -20.5q20 -14 29.5 -38t9.5 -48q0 -25 -9.5 -47.5t-29.5 -36.5q-33 -23 -74 -22t-69.5 34t-28.5 78z" />
<glyph unicode="&#x202f;" horiz-adv-x="344" />
<glyph unicode="&#x205f;" horiz-adv-x="430" />
<glyph unicode="&#x2122;" horiz-adv-x="1599" d="M33 952q0 14 9 26.5t32 14.5h82q0 66 11 161t34 177q-12 4 -8 19q2 8 9 17t13 19l4 11.5t4 9.5q8 16 24.5 20.5t31.5 -4.5q29 -12 28 -45q0 -12 -5 -19t-11 -18q-10 -33 -19.5 -76.5t-16.5 -92t-11 -94.5t-4 -85h34q23 0 47.5 -1t48 -3t42.5 -4q16 -2 24 -13t8 -26 q0 -12 -10 -23.5t-31 -11.5q-25 0 -71.5 2t-91.5 2q0 -59 8 -122.5t18 -102.5q4 -18 -5 -30.5t-23 -16.5q-16 -4 -33 4t-23 31q-12 45 -19 108.5t-7 128.5h-82q-20 0 -30.5 11.5t-10.5 25.5zM470 746.5q-1 39.5 0 79.5t2 74t1 54q2 23 15.5 32t29.5 9t29.5 -9t11.5 -32 q-4 -41 -5 -90t1 -96l17 22l20 23q16 16 34 36l33 38q18 23 48 42t59 25q27 4 49.5 -5t38.5 -44l19.5 -45t13.5 -37q4 -20 22 -2q20 23 50 48.5t53 41.5q74 61 129 62q63 0 82 -78q8 -41 22.5 -79t30.5 -60q16 -16 35 -17q20 0 39 6q41 12 86 23.5t73 15.5q29 0 45 -12 q25 -16 7 -45q-6 -8 -16.5 -16.5t-22.5 -10.5q-4 0 -7.5 2.5t-13.5 2.5q-12 -4 -48 -11.5t-73 -17.5q-45 -14 -89 -12t-79 36q-27 29 -42 69t-27 85q-6 25 -25 25q-18 0 -59 -29q-8 -6 -24.5 -19.5t-35 -31t-38 -38t-36 -41t-44.5 -20.5q-31 0 -43 23q-16 29 -27.5 65.5 t-24.5 63.5q-8 12 -24 8q-20 0 -43 -29q-16 -23 -40 -47l-46 -47q-16 -18 -36 -45l-34 -47q-10 -16 -27.5 -19t-33.5 3q-10 4 -19.5 16t-9.5 29q-2 33 -3 72.5z" />
<glyph unicode="&#xe000;" horiz-adv-x="750" d="M0 750h750v-750h-750v750z" />
<glyph unicode="&#xfb01;" horiz-adv-x="1644" d="M1027 175v20q0 40 3 71q4 53 15.5 104.5t25.5 92.5q-12 4 -12 16t4 25q8 18 24.5 46t32.5 44q20 16 46 18t48 -6q29 -10 44.5 -31.5t0.5 -48.5q-23 -45 -46 -118.5t-27 -141.5q-1 -20 -1 -38.5t1 -34.5q2 -33 8 -56q10 -41 36 -54q14 -8 38 -8q18 0 42 5q35 6 91 26 l115 45q60 24 118.5 42t99.5 18h7q36 0 56 -23q24 -27 24 -58q0 -22 -16 -44q-17 -25 -58 -29q-29 -4 -79 -19t-107 -36l-114 -40q-58 -19 -102 -30q-63 -15 -113 -15q-51 0 -88 16q-73 32 -106 151q-10 39 -11 91zM1278 1053q31 23 71 22q41 0 74 -22q25 -16 37 -42t12 -55 q0 -27 -12 -54.5t-39 -45.5q-32 -23 -73 -23q-3 0 -7 1q-45 2 -82 36q-34 36 -34 88q1 57 53 95zM59 573q-2 27 16.5 51.5t57.5 28.5q29 4 64.5 6.5t68.5 6.5q16 123 49 240.5t80 215.5q55 106 123 178q20 20 52 46t72 47.5t84 37t91 15.5q45 0 81 -15.5t61.5 -40t40 -55 t16.5 -61.5q3 -17 3 -34t-3 -34q-8 -29 -29.5 -45t-46.5 -16q-27 -4 -49.5 10t-26.5 43q-4 10 -4 19q0 8 -4 22q-6 23 -23.5 36t-35.5 11q-35 -2 -79 -28.5t-83 -63.5q-25 -23 -51.5 -61.5t-44.5 -75.5q-39 -80 -64.5 -174.5t-42.5 -198.5l169 18l185 21q9 1 17 1 q29 0 46 -17q22 -23 21 -52q0 -27 -16 -51t-53 -29q-94 -16 -198 -27l-191 -22q-12 -129 -14 -263v-33q0 -116 6 -221q7 -120 20.5 -214t32.5 -143q8 -23 23.5 -37t27.5 -35q13 -24 13 -44q0 -27 -23 -48q-25 -23 -53 -24h-4q-25 0 -48 12q-63 35 -90 116q-27 92 -41 211 t-18 244q-3 83 -3 165q0 41 1 82q2 122 10 220q-31 -4 -58.5 -7t-58.5 -3q-37 -2 -56.5 19t-19.5 50z" />
<glyph unicode="&#xfb02;" horiz-adv-x="1695" d="M1020 489q0 86 16 178.5t44 177.5t63.5 159.5t72.5 128.5q66 92 130 137q53 37 101 36q11 0 21 -1q61 -8 101 -79t49 -210q2 -28 2 -58t-2 -62q-4 -65 -15.5 -130.5t-29 -128t-39.5 -113.5q-25 -57 -56.5 -109.5t-66.5 -99.5t-71 -88l-68 -75q12 -10 37.5 -24.5 t48.5 -18.5q27 -4 57 -5q26 0 55 4q61 7 127 23t133.5 37.5t128.5 44.5q16 6 31 6q17 0 33 -8q29 -14 39 -43q5 -13 5 -26q0 -15 -6 -30q-11 -30 -53 -46l-136 -48q-83 -29 -175 -49t-186 -24q-11 0 -22 -1q-81 0 -148 27q-129 53 -176 187q-45 128 -45 315v16zM1173 489 v-23q0 -91 29 -167q53 63 106.5 136t87.5 155q12 31 25.5 79t23 103t14.5 111q4 39 4 75q0 14 -1 27q-6 113 -41 121q-3 1 -7 1q-32 0 -83 -79q-27 -41 -53.5 -101.5t-50 -133t-38 -151.5t-16.5 -153zM59 573q-2 27 16.5 51.5t57.5 28.5q29 4 64.5 6.5t68.5 6.5 q16 123 49 240.5t80 215.5q55 106 123 178q20 20 52 46t72 47.5t84 37t91 15.5q45 0 81 -15.5t61.5 -40t40 -55t16.5 -61.5q3 -17 3 -34t-3 -34q-8 -29 -29.5 -45t-46.5 -16q-27 -4 -49.5 10t-26.5 43q-4 10 -4 19q0 8 -4 22q-6 23 -23.5 36t-35.5 11q-35 -2 -79 -28.5 t-83 -63.5q-25 -23 -51.5 -61.5t-44.5 -75.5q-39 -80 -64.5 -174.5t-42.5 -198.5l169 18l185 21q9 1 17 1q29 0 46 -17q22 -23 21 -52q0 -27 -16 -51t-53 -29q-94 -16 -198 -27l-191 -22q-12 -129 -14 -263v-33q0 -116 6 -221q7 -120 20.5 -214t32.5 -143q8 -23 23.5 -37 t27.5 -35q13 -24 13 -44q0 -27 -23 -48q-25 -23 -53 -24h-4q-25 0 -48 12q-63 35 -90 116q-27 92 -41 211t-18 244q-3 83 -3 165q0 41 1 82q2 122 10 220q-31 -4 -58.5 -7t-58.5 -3q-37 -2 -56.5 19t-19.5 50z" />
<glyph unicode="&#xfb03;" horiz-adv-x="2465" d="M1848 175v20q0 40 3 71q4 53 15.5 104.5t25.5 92.5q-12 4 -12 16t4 25q8 18 24.5 46t32.5 44q20 16 46 18t48 -6q29 -10 44.5 -31.5t0.5 -48.5q-23 -45 -46 -118.5t-27 -141.5q-1 -20 -1 -38.5t1 -34.5q2 -33 8 -56q10 -41 36 -54q14 -8 38 -8q18 0 42 5q35 6 91 26 l115 45q60 24 118.5 42t99.5 18h7q36 0 56 -23q24 -27 24 -58q0 -22 -16 -44q-17 -25 -58 -29q-29 -4 -79 -19t-107 -36l-114 -40q-58 -19 -102 -30q-63 -15 -113 -15q-51 0 -88 16q-73 32 -106 151q-10 39 -11 91zM2099 1053q31 23 71 22q41 0 74 -22q25 -16 37 -42t12 -55 q0 -27 -12 -54.5t-39 -45.5q-32 -23 -73 -23q-3 0 -7 1q-45 2 -82 36q-34 36 -34 88q1 57 53 95zM880 573q-2 27 16.5 51.5t57.5 28.5q29 4 64.5 6.5t68.5 6.5q16 123 49 240.5t80 215.5q55 106 123 178q20 20 52 46t72 47.5t84 37t91 15.5q45 0 81 -15.5t61.5 -40t40 -55 t16.5 -61.5q3 -17 3 -34t-3 -34q-8 -29 -29.5 -45t-46.5 -16q-27 -4 -49.5 10t-26.5 43q-4 10 -4 19q0 8 -4 22q-6 23 -23.5 36t-35.5 11q-35 -2 -79 -28.5t-83 -63.5q-25 -23 -51.5 -61.5t-44.5 -75.5q-39 -80 -64.5 -174.5t-42.5 -198.5l169 18l185 21q9 1 17 1 q29 0 46 -17q22 -23 21 -52q0 -27 -16 -51t-53 -29q-94 -16 -198 -27l-191 -22q-12 -129 -14 -263v-33q0 -116 6 -221q7 -120 20.5 -214t32.5 -143q8 -23 23.5 -37t27.5 -35q13 -24 13 -44q0 -27 -23 -48q-25 -23 -53 -24h-4q-25 0 -48 12q-63 35 -90 116q-27 92 -41 211 t-18 244q-3 83 -3 165q0 41 1 82q2 122 10 220q-31 -4 -58.5 -7t-58.5 -3q-37 -2 -56.5 19t-19.5 50zM59 573q-2 27 16.5 51.5t57.5 28.5q29 4 64.5 6.5t68.5 6.5q16 123 49 240.5t80 215.5q55 106 123 178q20 20 52 46t72 47.5t84 37t91 15.5q45 0 81 -15.5t61.5 -40 t40 -55t16.5 -61.5q3 -17 3 -34t-3 -34q-8 -29 -29.5 -45t-46.5 -16q-27 -4 -49.5 10t-26.5 43q-4 10 -4 19q0 8 -4 22q-6 23 -23.5 36t-35.5 11q-35 -2 -79 -28.5t-83 -63.5q-25 -23 -51.5 -61.5t-44.5 -75.5q-39 -80 -64.5 -174.5t-42.5 -198.5l169 18l185 21q9 1 17 1 q29 0 46 -17q22 -23 21 -52q0 -27 -16 -51t-53 -29q-94 -16 -198 -27l-191 -22q-12 -129 -14 -263v-33q0 -116 6 -221q7 -120 20.5 -214t32.5 -143q8 -23 23.5 -37t27.5 -35q13 -24 13 -44q0 -27 -23 -48q-25 -23 -53 -24h-4q-25 0 -48 12q-63 35 -90 116q-27 92 -41 211 t-18 244q-3 83 -3 165q0 41 1 82q2 122 10 220q-31 -4 -58.5 -7t-58.5 -3q-37 -2 -56.5 19t-19.5 50z" />
<glyph unicode="&#xfb04;" horiz-adv-x="2516" d="M1841 489q0 86 16 178.5t44 177.5t63.5 159.5t72.5 128.5q66 92 130 137q53 37 101 36q11 0 21 -1q61 -8 101 -79t49 -210q2 -28 2 -58t-2 -62q-4 -65 -15.5 -130.5t-29 -128t-39.5 -113.5q-25 -57 -56.5 -109.5t-66.5 -99.5t-71 -88l-68 -75q12 -10 37.5 -24.5 t48.5 -18.5q27 -4 57 -5q26 0 55 4q61 7 127 23t133.5 37.5t128.5 44.5q16 6 31 6q17 0 33 -8q29 -14 39 -43q5 -13 5 -26q0 -15 -6 -30q-11 -30 -53 -46l-136 -48q-83 -29 -175 -49t-186 -24q-11 0 -22 -1q-81 0 -148 27q-129 53 -176 187q-45 128 -45 315v16zM1994 489 v-23q0 -91 29 -167q53 63 106.5 136t87.5 155q12 31 25.5 79t23 103t14.5 111q4 39 4 75q0 14 -1 27q-6 113 -41 121q-3 1 -7 1q-32 0 -83 -79q-27 -41 -53.5 -101.5t-50 -133t-38 -151.5t-16.5 -153zM880 573q-2 27 16.5 51.5t57.5 28.5q29 4 64.5 6.5t68.5 6.5 q16 123 49 240.5t80 215.5q55 106 123 178q20 20 52 46t72 47.5t84 37t91 15.5q45 0 81 -15.5t61.5 -40t40 -55t16.5 -61.5q3 -17 3 -34t-3 -34q-8 -29 -29.5 -45t-46.5 -16q-27 -4 -49.5 10t-26.5 43q-4 10 -4 19q0 8 -4 22q-6 23 -23.5 36t-35.5 11q-35 -2 -79 -28.5 t-83 -63.5q-25 -23 -51.5 -61.5t-44.5 -75.5q-39 -80 -64.5 -174.5t-42.5 -198.5l169 18l185 21q9 1 17 1q29 0 46 -17q22 -23 21 -52q0 -27 -16 -51t-53 -29q-94 -16 -198 -27l-191 -22q-12 -129 -14 -263v-33q0 -116 6 -221q7 -120 20.5 -214t32.5 -143q8 -23 23.5 -37 t27.5 -35q13 -24 13 -44q0 -27 -23 -48q-25 -23 -53 -24h-4q-25 0 -48 12q-63 35 -90 116q-27 92 -41 211t-18 244q-3 83 -3 165q0 41 1 82q2 122 10 220q-31 -4 -58.5 -7t-58.5 -3q-37 -2 -56.5 19t-19.5 50zM59 573q-2 27 16.5 51.5t57.5 28.5q29 4 64.5 6.5t68.5 6.5 q16 123 49 240.5t80 215.5q55 106 123 178q20 20 52 46t72 47.5t84 37t91 15.5q45 0 81 -15.5t61.5 -40t40 -55t16.5 -61.5q3 -17 3 -34t-3 -34q-8 -29 -29.5 -45t-46.5 -16q-27 -4 -49.5 10t-26.5 43q-4 10 -4 19q0 8 -4 22q-6 23 -23.5 36t-35.5 11q-35 -2 -79 -28.5 t-83 -63.5q-25 -23 -51.5 -61.5t-44.5 -75.5q-39 -80 -64.5 -174.5t-42.5 -198.5l169 18l185 21q9 1 17 1q29 0 46 -17q22 -23 21 -52q0 -27 -16 -51t-53 -29q-94 -16 -198 -27l-191 -22q-12 -129 -14 -263v-33q0 -116 6 -221q7 -120 20.5 -214t32.5 -143q8 -23 23.5 -37 t27.5 -35q13 -24 13 -44q0 -27 -23 -48q-25 -23 -53 -24h-4q-25 0 -48 12q-63 35 -90 116q-27 92 -41 211t-18 244q-3 83 -3 165q0 41 1 82q2 122 10 220q-31 -4 -58.5 -7t-58.5 -3q-37 -2 -56.5 19t-19.5 50z" />
</font>
</defs>
</svg>
